<svg xmlns="http://www.w3.org/2000/svg" width="530" height="450" viewBox="0 0 530 450" version="1.1"><path d="M 257.565 139.250 C 257.854 141.588, 258.776 149.575, 259.613 157 C 260.450 164.425, 261.975 177.475, 263.001 186 C 264.027 194.525, 265.536 207.125, 266.355 214 C 267.174 220.875, 268.296 229.425, 268.848 233 C 269.400 236.575, 270.132 242.875, 270.475 247 C 270.818 251.125, 271.728 258.550, 272.496 263.500 C 273.265 268.450, 274.171 276.100, 274.509 280.500 C 274.848 284.900, 275.544 290.750, 276.057 293.500 C 276.974 298.418, 278.207 308.322, 281.974 341 C 283.020 350.075, 283.904 357.613, 283.938 357.750 C 284.250 359.004, 303.897 348.595, 306 346.062 C 306.275 345.730, 307.625 344.901, 309 344.219 C 310.375 343.537, 312.693 342.196, 314.152 341.239 C 316.358 339.792, 334.368 328.887, 341.500 324.680 C 342.600 324.031, 343.725 323.258, 344 322.962 C 344.275 322.666, 349.225 319.606, 355 316.163 C 366.136 309.523, 366.492 309.305, 374.382 304.250 C 377.172 302.462, 379.990 301, 380.644 301 C 381.298 301, 381.983 300.627, 382.167 300.170 C 382.350 299.714, 385.875 297.366, 390 294.953 C 394.125 292.540, 397.725 290.293, 398 289.960 C 398.275 289.627, 399.175 289.028, 400 288.629 C 400.825 288.231, 403.300 286.810, 405.500 285.472 C 407.700 284.134, 410.512 282.509, 411.750 281.859 C 412.988 281.210, 414 280.301, 414 279.839 C 414 279.378, 414.573 279, 415.273 279 C 415.973 279, 418.828 277.538, 421.618 275.750 C 424.408 273.962, 427.548 271.956, 428.595 271.291 C 429.643 270.627, 435.225 267.290, 441 263.876 C 446.775 260.462, 451.725 257.406, 452 257.084 C 452.275 256.763, 453.512 255.938, 454.750 255.250 C 455.988 254.563, 458.012 253.438, 459.250 252.750 C 460.488 252.063, 461.725 251.237, 462 250.915 C 462.275 250.593, 465.773 248.429, 469.773 246.107 C 473.774 243.785, 476.826 241.528, 476.557 241.092 C 476.288 240.657, 472.047 240.040, 467.132 239.722 C 462.217 239.403, 455.115 238.421, 451.348 237.538 C 438.123 234.439, 419.550 229.333, 416.500 227.957 C 414.233 226.934, 406.983 224.345, 402.500 222.958 C 400.850 222.448, 398.600 221.598, 397.500 221.070 C 396.400 220.541, 393.250 219.160, 390.500 218 C 383.319 214.971, 382.068 214.432, 376.500 211.966 C 368.308 208.339, 356.144 202.282, 345.500 196.530 C 340 193.558, 333.137 189.879, 330.250 188.354 C 327.363 186.830, 325 185.226, 325 184.791 C 325 184.356, 324.417 184, 323.703 184 C 322.990 184, 321.528 183.329, 320.453 182.509 C 319.379 181.689, 315.575 179.116, 312 176.791 C 308.425 174.466, 305.350 172.212, 305.167 171.782 C 304.983 171.352, 304.388 171, 303.844 171 C 303.299 171, 299.797 168.637, 296.061 165.750 C 292.324 162.863, 288.270 159.825, 287.051 159 C 285.832 158.175, 283.603 156.375, 282.097 155 C 280.592 153.625, 278.267 151.574, 276.930 150.443 C 275.594 149.312, 271.578 145.825, 268.007 142.693 C 264.436 139.562, 260.949 137, 260.257 137 C 259.566 137, 259 136.550, 259 136 C 259 135.450, 258.559 135, 258.019 135 C 257.449 135, 257.259 136.781, 257.565 139.250" stroke="none" fill="#ff0000" fill-rule="evenodd"/><path d="M 244.939 42.750 C 240.595 50.075, 234.506 59.518, 233.332 60.752 C 232.502 61.623, 231.404 61.724, 229.719 61.083 C 228.387 60.577, 222.056 59.840, 215.649 59.445 L 204 58.728 204 60.215 C 204 62.002, 205.675 67.324, 207.599 71.651 C 208.369 73.384, 209.015 75.409, 209.034 76.151 C 209.053 76.893, 209.941 79.300, 211.007 81.500 L 212.947 85.500 209.718 88.539 L 206.490 91.578 193.495 93.852 C 186.348 95.103, 179.808 96.492, 178.962 96.939 C 178.115 97.387, 175.433 98.089, 173 98.500 C 170.567 98.911, 167.885 99.628, 167.038 100.093 C 166.192 100.558, 162.800 101.644, 159.500 102.506 C 147.269 105.700, 128.691 112.071, 128.167 113.250 C 127.983 113.662, 127.182 114, 126.387 114 C 125.139 114, 116.920 117.099, 110.500 119.990 C 109.400 120.486, 106.250 121.857, 103.500 123.038 C 95.495 126.477, 77.546 135.282, 77 136.038 C 76.725 136.419, 75.474 137.051, 74.221 137.442 C 72.968 137.833, 69.603 139.694, 66.744 141.577 C 63.885 143.459, 61.010 145, 60.356 145 C 59.702 145, 59.017 145.338, 58.833 145.750 C 58.325 146.893, 46.244 155, 45.049 155 C 44.472 155, 44 155.374, 44 155.830 C 44 156.287, 41.970 158.119, 39.489 159.901 C 37.007 161.683, 33.295 164.953, 31.239 167.168 C 29.182 169.383, 26.712 171.926, 25.750 172.820 C 24.788 173.713, 24 174.836, 24 175.315 C 24 175.793, 23.100 177.329, 22 178.727 C 20.533 180.593, 20.005 182.765, 20.017 186.885 C 20.036 192.821, 20.999 194.350, 27.185 198.263 C 28.662 199.197, 30.945 200.982, 32.260 202.230 C 33.574 203.479, 37.712 207.200, 41.456 210.500 C 45.199 213.800, 49.441 217.625, 50.883 219 C 52.325 220.375, 57.309 224.875, 61.959 229 C 66.610 233.125, 71.136 237.175, 72.017 238 C 72.898 238.825, 76.897 242.425, 80.903 246 C 84.909 249.575, 89.876 254.075, 91.940 256 C 94.004 257.925, 98.044 261.525, 100.918 264 C 103.791 266.475, 107.828 270.075, 109.888 272 C 111.948 273.925, 116.235 277.750, 119.415 280.500 C 122.594 283.250, 126.633 286.850, 128.391 288.500 C 131.088 291.032, 142.209 301.132, 151.804 309.763 C 153.188 311.008, 156.775 314.158, 159.775 316.763 C 162.775 319.368, 166.893 323.075, 168.926 325 C 170.959 326.925, 174.981 330.525, 177.864 333 C 180.747 335.475, 184.799 339.075, 186.868 341 C 188.938 342.925, 194.396 347.875, 198.998 352 C 203.599 356.125, 208.970 360.960, 210.932 362.745 C 217.598 368.808, 218.428 367.396, 220.521 346.443 C 221.389 337.756, 222.278 330.359, 222.496 330.006 C 222.714 329.653, 223.608 322.527, 224.482 314.171 C 225.356 305.815, 226.280 298.420, 226.536 297.739 C 226.791 297.057, 227.705 290.425, 228.568 283 C 230.182 269.093, 232.390 250.747, 235.908 222 C 237.019 212.925, 238.603 199.875, 239.429 193 C 240.254 186.125, 241.175 179.506, 241.474 178.291 C 241.773 177.076, 242.696 169.651, 243.524 161.791 C 246.469 133.852, 248.047 127.054, 250.628 131.197 C 251.695 132.910, 251.692 132.887, 259.083 194.500 C 260.205 203.850, 261.965 218.475, 262.994 227 C 264.024 235.525, 265.529 248.125, 266.340 255 C 267.151 261.875, 268.273 270.200, 268.835 273.500 C 269.397 276.800, 270.139 283.100, 270.484 287.500 C 270.829 291.900, 271.533 297.975, 272.048 301 C 272.563 304.025, 273.646 312.575, 274.454 320 C 275.263 327.425, 276.608 338.450, 277.443 344.500 C 278.278 350.550, 278.970 357.101, 278.980 359.059 C 278.991 361.016, 279.643 363.491, 280.429 364.559 L 281.859 366.500 285.679 364.510 C 287.781 363.415, 289.725 362.290, 290 362.010 C 290.275 361.729, 291.400 360.973, 292.500 360.328 C 293.600 359.684, 300.710 355.409, 308.299 350.828 C 315.889 346.248, 323.314 341.825, 324.799 341 C 326.285 340.175, 327.725 339.237, 328 338.915 C 328.275 338.593, 331.823 336.343, 335.884 333.915 C 339.945 331.487, 344.311 328.825, 345.587 328 C 346.863 327.175, 355 322.225, 363.669 317 C 372.338 311.775, 380.858 306.600, 382.602 305.500 C 384.347 304.400, 388.349 301.925, 391.495 300 C 394.641 298.075, 398.404 295.727, 399.858 294.782 C 401.311 293.837, 403.850 292.383, 405.500 291.552 C 408.797 289.891, 412.221 287.797, 413 286.967 C 413.275 286.674, 416.875 284.461, 421 282.050 C 425.125 279.639, 428.725 277.395, 429 277.063 C 429.275 276.731, 430.625 275.901, 432 275.219 C 433.375 274.537, 435.693 273.196, 437.152 272.239 C 439.358 270.792, 457.368 259.887, 464.500 255.680 C 465.600 255.031, 466.725 254.275, 467 254 C 467.588 253.412, 469.541 252.223, 477 247.910 C 480.025 246.161, 482.726 244.453, 483.003 244.115 C 484.065 242.816, 491.979 239, 493.611 239 C 494.553 239, 497.560 237.566, 500.292 235.813 C 518.218 224.310, 504.306 197.901, 464.306 167.500 C 450.785 157.224, 435.669 147, 433.996 147 C 433.540 147, 433.017 146.654, 432.833 146.231 C 432.394 145.219, 418.439 137, 417.159 137 C 416.613 137, 416.017 136.662, 415.833 136.250 C 415.453 135.394, 400.643 127.608, 389 122.143 C 387.075 121.239, 385.275 120.223, 385 119.885 C 384.725 119.546, 383.375 118.922, 382 118.497 C 379.870 117.839, 369.244 113.171, 362.500 109.931 C 361.400 109.402, 359.150 108.560, 357.500 108.060 C 355.850 107.559, 352.025 106.176, 349 104.985 C 345.975 103.794, 341.700 102.345, 339.500 101.764 C 337.300 101.183, 335.050 100.375, 334.500 99.969 C 333.950 99.563, 331.925 98.902, 330 98.500 C 328.075 98.098, 326.050 97.431, 325.500 97.019 C 324.283 96.106, 312.212 93.240, 302 91.440 C 287.442 88.873, 285.976 88.248, 286.034 84.628 C 286.053 83.457, 286.937 80.700, 288 78.500 C 289.063 76.300, 289.947 73.987, 289.966 73.359 C 289.985 72.732, 290.890 70.257, 291.978 67.859 C 293.066 65.462, 293.966 62.434, 293.978 61.130 L 294 58.760 282.267 59.493 C 275.814 59.896, 269.589 60.586, 268.434 61.025 C 265.744 62.048, 265.095 61.549, 261.239 55.500 C 259.487 52.750, 257.691 50.050, 257.248 49.500 C 256.806 48.950, 255.200 46.362, 253.680 43.750 C 250.269 37.888, 247.978 37.626, 244.939 42.750 M 248.033 46.573 C 247.993 47.862, 239.273 61.705, 236.792 64.418 L 235.038 66.336 222.934 65.418 C 216.276 64.913, 210.688 64.642, 210.515 64.816 C 210.342 64.990, 211.314 67.915, 212.675 71.316 C 215.137 77.468, 217.969 85.907, 217.989 87.153 C 217.999 87.755, 214.404 91.314, 204.750 100.261 C 202.688 102.172, 201 103.964, 201 104.243 C 201 104.521, 204.262 105.755, 208.250 106.985 C 212.238 108.215, 216.918 109.846, 218.651 110.610 C 220.384 111.375, 222.249 112, 222.794 112 C 224.134 112, 225.001 114.497, 224.993 118.332 C 224.983 123.513, 227.280 137, 228.173 137 C 228.628 137, 229 136.649, 229 136.219 C 229 135.790, 230.238 134.898, 231.750 134.237 C 233.262 133.577, 235.677 132.240, 237.115 131.268 C 238.553 130.296, 241.823 128.215, 244.381 126.645 L 249.033 123.791 256.267 128.114 C 260.245 130.493, 263.725 132.677, 264.001 132.969 C 264.276 133.261, 265.883 134.220, 267.572 135.101 L 270.643 136.702 271.884 126.601 C 273.786 111.134, 272.620 112.678, 285.587 108.450 C 291.864 106.404, 297 104.520, 297 104.265 C 297 103.649, 288.157 95.031, 284.927 92.500 C 279.737 88.433, 279.570 85.412, 283.990 75.500 C 284.971 73.300, 286.096 69.990, 286.490 68.143 L 287.206 64.787 274.705 65.508 L 262.204 66.229 258.105 59.864 C 250.517 48.086, 248.086 44.877, 248.033 46.573 M 297 96.885 C 297 97.372, 298.062 98.466, 299.360 99.316 C 305.913 103.610, 306.905 107.434, 301.750 108.536 C 299.962 108.918, 298.050 109.577, 297.500 110 C 296.950 110.423, 294.940 111.103, 293.033 111.512 C 291.126 111.920, 288.876 112.637, 288.033 113.104 C 287.190 113.572, 284.675 114.408, 282.445 114.963 L 278.391 115.972 276.590 129.172 L 274.789 142.373 276.554 143.664 C 277.525 144.373, 279.485 145.988, 280.910 147.253 C 282.334 148.517, 287.325 152.464, 292 156.025 C 296.675 159.586, 300.650 162.838, 300.833 163.250 C 301.017 163.662, 301.598 164, 302.126 164 C 302.653 164, 303.628 164.457, 304.292 165.015 C 307.281 167.526, 314.924 172.861, 319.389 175.553 C 322.078 177.174, 325.903 179.491, 327.889 180.702 C 329.875 181.914, 332.175 183.231, 333 183.629 C 333.825 184.028, 334.725 184.647, 335 185.005 C 335.275 185.364, 336.850 186.343, 338.500 187.181 C 340.150 188.019, 348.925 192.520, 358 197.182 C 376.058 206.459, 392.813 214, 395.369 214 C 396.266 214, 397 214.450, 397 215 C 397 215.550, 397.788 216.015, 398.750 216.034 C 399.712 216.053, 402.300 216.937, 404.500 218 C 406.700 219.063, 409.069 219.947, 409.764 219.966 C 410.459 219.985, 411.809 220.449, 412.764 220.998 C 415.007 222.287, 429.831 227, 431.641 227 C 432.403 227, 433.809 227.432, 434.764 227.960 C 439.420 230.533, 466.441 234.953, 477.674 234.979 C 488.717 235.004, 495.548 233.570, 499.534 230.389 L 502.500 228.022 502.477 221.761 L 502.454 215.500 499.248 210 C 495.713 203.936, 493.185 200.886, 483.088 190.500 C 475.960 183.168, 469.187 177, 468.264 177 C 467.965 177, 467.221 176.365, 466.610 175.590 C 466 174.814, 461 170.991, 455.500 167.094 C 450 163.197, 445.049 159.643, 444.497 159.196 C 443.946 158.749, 440.121 156.393, 435.997 153.960 C 431.874 151.528, 428.350 149.192, 428.167 148.769 C 427.983 148.346, 427.344 148, 426.745 148 C 426.147 148, 424.947 147.388, 424.079 146.640 C 421.059 144.039, 382.379 124.043, 371.896 119.664 C 369.478 118.654, 366.226 117.191, 364.669 116.414 C 363.112 115.636, 361.312 114.985, 360.669 114.966 C 360.026 114.947, 357.700 114.063, 355.500 113 C 353.300 111.937, 350.931 111.053, 350.236 111.034 C 349.541 111.015, 348.191 110.553, 347.236 110.007 C 343.378 107.801, 319.540 100.347, 310.830 98.623 C 307.712 98.005, 304.824 97.162, 304.414 96.750 C 303.363 95.695, 297 95.811, 297 96.885 M 194.500 98.685 C 192.850 98.897, 190.600 99.470, 189.500 99.958 C 188.400 100.445, 185.475 101.117, 183 101.450 C 180.525 101.784, 176.475 102.672, 174 103.424 C 171.525 104.176, 166.125 105.795, 162 107.021 C 150.036 110.579, 145.638 111.984, 143.500 112.931 C 141.109 113.990, 132.965 116.705, 127.750 118.181 C 125.687 118.765, 124 119.639, 124 120.122 C 124 120.605, 123.213 121.015, 122.250 121.034 C 121.287 121.053, 118.700 121.937, 116.500 123 C 114.300 124.063, 112.172 124.947, 111.772 124.966 C 111.371 124.985, 107.680 126.575, 103.568 128.500 C 99.457 130.425, 95.622 132, 95.046 132 C 94.471 132, 94 132.414, 94 132.921 C 94 133.427, 92.650 134.138, 91 134.500 C 89.350 134.862, 88 135.573, 88 136.079 C 88 136.586, 87.434 137, 86.742 137 C 85.487 137, 78.465 140.524, 72.595 144.099 C 70.893 145.135, 68.375 146.547, 67 147.235 C 65.625 147.923, 64.050 148.822, 63.500 149.233 C 62.950 149.644, 58.450 152.686, 53.500 155.993 C 41.309 164.138, 28.033 175.818, 28.009 178.421 C 28.004 178.928, 27.281 180.137, 26.403 181.107 C 24.293 183.439, 24.185 189.328, 26.215 191.358 C 29.772 194.915, 36.457 196.126, 50.291 195.718 C 62.606 195.356, 77.542 193.674, 81 192.261 C 81.825 191.923, 85.200 191.117, 88.500 190.468 C 96.882 188.821, 107.192 186.106, 109.127 185.036 C 110.022 184.541, 112.497 183.822, 114.627 183.438 C 116.757 183.054, 118.950 182.400, 119.500 181.985 C 120.050 181.570, 122.060 180.897, 123.967 180.488 C 125.874 180.080, 128.124 179.356, 128.967 178.880 C 130.819 177.835, 138.103 175.247, 143.250 173.806 C 145.313 173.229, 147 172.361, 147 171.878 C 147 171.395, 147.787 170.985, 148.750 170.966 C 149.713 170.947, 152.300 170.063, 154.500 169 C 156.700 167.937, 158.828 167.053, 159.228 167.034 C 159.629 167.015, 163.454 165.398, 167.728 163.440 C 179.027 158.264, 182.438 156.577, 183 155.885 C 183.275 155.546, 184.569 154.936, 185.876 154.527 C 188.635 153.666, 209.744 141.483, 212.079 139.405 C 212.947 138.632, 213.978 138, 214.369 138 C 214.761 138, 216.413 137.015, 218.040 135.812 L 221 133.624 220.989 128.562 C 220.983 125.778, 220.699 121.814, 220.359 119.753 L 219.739 116.007 215.620 114.962 C 213.354 114.387, 210.600 113.513, 209.500 113.020 C 208.400 112.526, 204.419 111.120, 200.654 109.894 C 196.889 108.668, 193.567 107.036, 193.272 106.267 C 192.976 105.496, 194.229 103.327, 196.064 101.434 C 197.895 99.545, 198.967 98.067, 198.446 98.150 C 197.926 98.232, 196.150 98.473, 194.500 98.685 M 239 136 C 239 136.550, 238.532 137, 237.961 137 C 237.389 137, 234.582 138.575, 231.724 140.500 C 225.578 144.639, 224.319 144.795, 222.864 141.601 L 221.771 139.202 217.636 141.988 C 209.467 147.490, 204.418 150.562, 199.526 153.011 C 196.790 154.380, 193.945 156.063, 193.204 156.750 C 192.463 157.438, 191.214 158, 190.429 158 C 189.643 158, 189 158.450, 189 159 C 189 159.550, 188.493 160, 187.873 160 C 187.253 160, 183.540 161.537, 179.623 163.416 C 175.705 165.295, 170.250 167.795, 167.500 168.971 C 164.750 170.147, 161.600 171.512, 160.500 172.004 C 153.233 175.254, 142.336 179.525, 135.500 181.802 C 131.100 183.268, 127.275 184.718, 127 185.025 C 126.725 185.331, 121.775 186.854, 116 188.407 C 110.225 189.960, 104.600 191.603, 103.500 192.057 C 101.495 192.885, 99.222 193.427, 82.500 197.063 C 72.698 199.194, 49.310 202.205, 44.501 201.954 C 39.512 201.694, 39.424 201.883, 43.027 205.122 C 44.937 206.840, 48.300 209.882, 50.500 211.882 C 52.700 213.883, 60.800 221.136, 68.500 227.999 C 76.200 234.862, 83.677 241.608, 85.115 242.989 C 86.554 244.370, 90.330 247.750, 93.507 250.500 C 96.684 253.250, 100.969 257.075, 103.029 259 C 105.089 260.925, 110.088 265.425, 114.137 269 C 118.187 272.575, 123.975 277.763, 127 280.529 C 130.025 283.295, 136.550 289.127, 141.500 293.489 C 146.450 297.852, 151.207 302.113, 152.071 302.960 C 152.936 303.807, 156.924 307.425, 160.934 311 C 164.944 314.575, 169.959 319.075, 172.078 321 C 174.197 322.925, 178.466 326.750, 181.564 329.500 C 190.086 337.064, 190.953 337.845, 200.990 347 C 206.116 351.675, 211.093 356.055, 212.051 356.734 L 213.791 357.967 214.434 355.406 C 214.788 353.998, 215.744 346.468, 216.560 338.673 C 217.376 330.878, 218.252 323.825, 218.508 323 C 218.764 322.175, 219.658 314.975, 220.495 307 C 221.332 299.025, 222.434 290.025, 222.944 287 C 223.454 283.975, 224.154 278.125, 224.500 274 C 224.846 269.875, 225.594 263.800, 226.162 260.500 C 226.730 257.200, 227.804 249.325, 228.548 243 C 229.858 231.871, 231.806 215.917, 235.934 182.500 C 237.021 173.700, 238.590 160.670, 239.421 153.545 C 240.251 146.420, 241.207 139.333, 241.545 137.795 C 242.015 135.656, 241.788 135, 240.579 135 C 239.711 135, 239 135.450, 239 136 M 257.565 139.250 C 257.854 141.588, 258.776 149.575, 259.613 157 C 260.450 164.425, 261.975 177.475, 263.001 186 C 264.027 194.525, 265.536 207.125, 266.355 214 C 267.174 220.875, 268.296 229.425, 268.848 233 C 269.400 236.575, 270.132 242.875, 270.475 247 C 270.818 251.125, 271.728 258.550, 272.496 263.500 C 273.265 268.450, 274.171 276.100, 274.509 280.500 C 274.848 284.900, 275.544 290.750, 276.057 293.500 C 276.974 298.418, 278.207 308.322, 281.974 341 C 283.020 350.075, 283.904 357.613, 283.938 357.750 C 284.250 359.004, 303.897 348.595, 306 346.062 C 306.275 345.730, 307.625 344.901, 309 344.219 C 310.375 343.537, 312.693 342.196, 314.152 341.239 C 316.358 339.792, 334.368 328.887, 341.500 324.680 C 342.600 324.031, 343.725 323.258, 344 322.962 C 344.275 322.666, 349.225 319.606, 355 316.163 C 366.136 309.523, 366.492 309.305, 374.382 304.250 C 377.172 302.462, 379.990 301, 380.644 301 C 381.298 301, 381.983 300.627, 382.167 300.170 C 382.350 299.714, 385.875 297.366, 390 294.953 C 394.125 292.540, 397.725 290.293, 398 289.960 C 398.275 289.627, 399.175 289.028, 400 288.629 C 400.825 288.231, 403.300 286.810, 405.500 285.472 C 407.700 284.134, 410.512 282.509, 411.750 281.859 C 412.988 281.210, 414 280.301, 414 279.839 C 414 279.378, 414.573 279, 415.273 279 C 415.973 279, 418.828 277.538, 421.618 275.750 C 424.408 273.962, 427.548 271.956, 428.595 271.291 C 429.643 270.627, 435.225 267.290, 441 263.876 C 446.775 260.462, 451.725 257.406, 452 257.084 C 452.275 256.763, 453.512 255.938, 454.750 255.250 C 455.988 254.563, 458.012 253.438, 459.250 252.750 C 460.488 252.063, 461.725 251.237, 462 250.915 C 462.275 250.593, 465.773 248.429, 469.773 246.107 C 473.774 243.785, 476.826 241.528, 476.557 241.092 C 476.288 240.657, 472.047 240.040, 467.132 239.722 C 462.217 239.403, 455.115 238.421, 451.348 237.538 C 438.123 234.439, 419.550 229.333, 416.500 227.957 C 414.233 226.934, 406.983 224.345, 402.500 222.958 C 400.850 222.448, 398.600 221.598, 397.500 221.070 C 396.400 220.541, 393.250 219.160, 390.500 218 C 383.319 214.971, 382.068 214.432, 376.500 211.966 C 368.308 208.339, 356.144 202.282, 345.500 196.530 C 340 193.558, 333.137 189.879, 330.250 188.354 C 327.363 186.830, 325 185.226, 325 184.791 C 325 184.356, 324.417 184, 323.703 184 C 322.990 184, 321.528 183.329, 320.453 182.509 C 319.379 181.689, 315.575 179.116, 312 176.791 C 308.425 174.466, 305.350 172.212, 305.167 171.782 C 304.983 171.352, 304.388 171, 303.844 171 C 303.299 171, 299.797 168.637, 296.061 165.750 C 292.324 162.863, 288.270 159.825, 287.051 159 C 285.832 158.175, 283.603 156.375, 282.097 155 C 280.592 153.625, 278.267 151.574, 276.930 150.443 C 275.594 149.312, 271.578 145.825, 268.007 142.693 C 264.436 139.562, 260.949 137, 260.257 137 C 259.566 137, 259 136.550, 259 136 C 259 135.450, 258.559 135, 258.019 135 C 257.449 135, 257.259 136.781, 257.565 139.250" stroke="none" fill="#000000" fill-rule="evenodd"/><path d="M 248.033 46.573 C 247.993 47.862, 239.273 61.705, 236.792 64.418 L 235.038 66.336 222.934 65.418 C 216.276 64.913, 210.688 64.642, 210.515 64.816 C 210.342 64.990, 211.314 67.915, 212.675 71.316 C 215.137 77.468, 217.969 85.907, 217.989 87.153 C 217.999 87.755, 214.404 91.314, 204.750 100.261 C 202.688 102.172, 201 103.964, 201 104.243 C 201 104.521, 204.262 105.755, 208.250 106.985 C 212.238 108.215, 216.918 109.846, 218.651 110.610 C 220.384 111.375, 222.249 112, 222.794 112 C 224.134 112, 225.001 114.497, 224.993 118.332 C 224.983 123.513, 227.280 137, 228.173 137 C 228.628 137, 229 136.649, 229 136.219 C 229 135.790, 230.238 134.898, 231.750 134.237 C 233.262 133.577, 235.677 132.240, 237.115 131.268 C 238.553 130.296, 241.823 128.215, 244.381 126.645 L 249.033 123.791 256.267 128.114 C 260.245 130.493, 263.725 132.677, 264.001 132.969 C 264.276 133.261, 265.883 134.220, 267.572 135.101 L 270.643 136.702 271.884 126.601 C 273.786 111.134, 272.620 112.678, 285.587 108.450 C 291.864 106.404, 297 104.520, 297 104.265 C 297 103.649, 288.157 95.031, 284.927 92.500 C 279.737 88.433, 279.570 85.412, 283.990 75.500 C 284.971 73.300, 286.096 69.990, 286.490 68.143 L 287.206 64.787 274.705 65.508 L 262.204 66.229 258.105 59.864 C 250.517 48.086, 248.086 44.877, 248.033 46.573" stroke="none" fill="#02ff00" fill-rule="evenodd"/><path d="M 246.278 39.250 C 245.746 39.938, 244.995 41.175, 244.609 42 C 244.223 42.825, 244.658 42.487, 245.576 41.250 C 246.493 40.013, 248.029 39, 248.989 39 C 250.657 39, 256 45.843, 256 47.979 C 256 48.540, 256.477 49, 257.059 49 C 258.235 49, 257.937 48.386, 253.782 42.250 C 250.893 37.985, 248.116 36.874, 246.278 39.250 M 240.333 48.750 C 239.391 50.263, 238.143 52.175, 237.560 53 L 236.500 54.500 238 53.327 C 239.657 52.031, 243.427 46, 242.580 46 C 242.286 46, 241.275 47.237, 240.333 48.750 M 259.444 52.687 C 260.292 54.439, 261.484 56.181, 262.093 56.557 C 263.434 57.386, 261.988 54.537, 259.525 51.500 L 257.903 49.500 259.444 52.687 M 205.441 58.095 C 205.134 58.593, 207.234 59, 210.108 59 C 212.982 59, 215.146 58.837, 214.917 58.638 C 213.884 57.740, 205.942 57.285, 205.441 58.095 M 234 58.500 C 233.315 59.325, 231.573 60.029, 230.128 60.063 L 227.500 60.127 229.872 61.076 C 231.785 61.842, 232.606 61.607, 234.122 59.860 C 235.155 58.669, 236 57.538, 236 57.347 C 236 56.600, 235.189 57.068, 234 58.500 M 263.518 59.173 C 264.341 61.335, 266.001 61.921, 268.500 60.932 L 270.500 60.141 267.950 60.070 C 266.547 60.032, 264.833 59.438, 264.141 58.750 C 263.131 57.748, 263.008 57.832, 263.518 59.173 M 288.432 58.716 L 293.873 59.096 294.351 61.298 L 294.828 63.500 294.664 61 L 294.500 58.500 288.745 58.418 L 282.990 58.336 288.432 58.716 M 203.015 60.583 C 203.024 61.638, 203.487 63.175, 204.046 64 C 204.787 65.095, 204.880 64.691, 204.390 62.500 C 203.567 58.823, 202.995 58.025, 203.015 60.583 M 218.250 59.689 C 219.213 59.941, 220.787 59.941, 221.750 59.689 C 222.713 59.438, 221.925 59.232, 220 59.232 C 218.075 59.232, 217.287 59.438, 218.250 59.689 M 276.762 59.707 C 278.006 59.946, 279.806 59.937, 280.762 59.687 C 281.718 59.437, 280.700 59.241, 278.500 59.252 C 276.300 59.263, 275.518 59.468, 276.762 59.707 M 291.125 69.625 C 290.465 71.073, 290.154 72.488, 290.435 72.768 C 290.715 73.048, 291.419 72.028, 292 70.500 C 293.372 66.892, 292.684 66.204, 291.125 69.625 M 206.035 70.550 C 206.055 71.073, 206.749 72.625, 207.577 74 L 209.083 76.500 208.429 74 C 207.747 71.392, 205.971 68.833, 206.035 70.550 M 287.028 80.426 C 285.542 84.335, 285.836 84.950, 287.618 81.662 C 288.464 80.100, 288.909 78.576, 288.606 78.273 C 288.304 77.970, 287.593 78.939, 287.028 80.426 M 210.744 83.440 C 211.069 85.143, 210.437 86.654, 208.651 88.440 C 207.243 89.848, 206.436 91, 206.858 91 C 207.280 91, 208.788 89.763, 210.208 88.250 C 212.238 86.088, 212.606 85.019, 211.928 83.250 C 210.789 80.281, 210.159 80.382, 210.744 83.440 M 294 89.823 C 294.825 90.321, 297.750 90.990, 300.500 91.309 C 306.506 92.004, 303.582 90.565, 297 89.585 C 294.157 89.162, 293.052 89.250, 294 89.823 M 310.500 92.865 C 311.600 93.347, 314.075 94.026, 316 94.375 C 318.403 94.811, 318.873 94.735, 317.500 94.135 C 316.400 93.653, 313.925 92.974, 312 92.625 C 309.597 92.189, 309.127 92.265, 310.500 92.865 M 188 94 L 185.500 94.801 188 94.782 C 189.375 94.772, 191.850 94.420, 193.500 94 L 196.500 93.237 193.500 93.218 C 191.850 93.208, 189.375 93.560, 188 94 M 175.500 97 L 173.500 97.859 175.691 97.930 C 176.896 97.968, 178.160 97.550, 178.500 97 C 179.231 95.817, 178.252 95.817, 175.500 97 M 297 96.776 C 297 97.323, 298.062 98.466, 299.360 99.316 C 305.913 103.610, 306.905 107.434, 301.750 108.536 C 299.962 108.918, 298.050 109.577, 297.500 110 C 296.950 110.423, 294.940 111.103, 293.033 111.512 C 291.126 111.920, 288.876 112.637, 288.033 113.104 C 287.190 113.572, 284.675 114.408, 282.445 114.963 L 278.391 115.972 276.590 129.172 L 274.789 142.373 276.554 143.664 C 277.525 144.373, 279.485 145.986, 280.910 147.248 C 282.334 148.510, 285.300 150.882, 287.500 152.521 C 289.700 154.159, 292.012 155.980, 292.638 156.566 C 296.476 160.163, 321.879 177.548, 327.500 180.425 C 331.002 182.217, 334.289 184.256, 335 185.078 C 335.275 185.396, 336.850 186.346, 338.500 187.189 C 340.150 188.033, 348.925 192.518, 358 197.158 C 375.511 206.110, 389.719 212.549, 394.250 213.587 C 395.762 213.933, 397 214.618, 397 215.108 C 397 215.599, 397.788 216.015, 398.750 216.034 C 399.712 216.053, 402.300 216.937, 404.500 218 C 406.700 219.063, 409.069 219.947, 409.764 219.966 C 410.459 219.985, 411.809 220.449, 412.764 220.998 C 415.007 222.287, 429.831 227, 431.641 227 C 432.403 227, 433.809 227.432, 434.764 227.960 C 439.420 230.533, 466.441 234.953, 477.674 234.979 C 488.717 235.004, 495.548 233.570, 499.534 230.389 L 502.500 228.022 502.477 221.761 L 502.454 215.500 499.248 210 C 495.713 203.936, 493.185 200.886, 483.088 190.500 C 475.960 183.168, 469.187 177, 468.264 177 C 467.965 177, 467.221 176.361, 466.610 175.581 C 466 174.801, 461 170.993, 455.500 167.120 C 450 163.248, 445.049 159.697, 444.497 159.231 C 443.946 158.765, 440.121 156.393, 435.997 153.960 C 431.874 151.528, 428.350 149.192, 428.167 148.769 C 427.983 148.346, 427.344 148, 426.745 148 C 426.147 148, 424.947 147.388, 424.079 146.640 C 421.845 144.716, 413.118 140.011, 393.396 130.098 C 376.791 121.751, 373.473 120.209, 364 116.438 C 361.525 115.452, 357.612 113.826, 355.305 112.823 C 352.998 111.820, 350.629 111, 350.041 111 C 349.454 111, 348.191 110.553, 347.236 110.007 C 343.531 107.889, 320.578 100.673, 310 98.300 C 299.884 96.030, 297 95.692, 297 96.776 M 195 98.691 C 193.075 98.894, 190.600 99.462, 189.500 99.953 C 188.400 100.443, 185.475 101.117, 183 101.450 C 180.525 101.784, 176.475 102.672, 174 103.424 C 171.525 104.176, 166.125 105.795, 162 107.021 C 150.036 110.579, 145.638 111.984, 143.500 112.931 C 141.109 113.990, 132.965 116.705, 127.750 118.181 C 125.688 118.765, 124 119.639, 124 120.122 C 124 120.605, 123.213 121.015, 122.250 121.034 C 121.287 121.053, 118.700 121.937, 116.500 123 C 114.300 124.063, 112.180 124.947, 111.788 124.966 C 111.397 124.985, 107.758 126.575, 103.703 128.500 C 99.647 130.425, 95.805 132, 95.164 132 C 94.524 132, 94 132.414, 94 132.921 C 94 133.427, 92.650 134.138, 91 134.500 C 89.350 134.862, 88 135.573, 88 136.079 C 88 136.586, 87.431 137, 86.735 137 C 85.509 137, 81.789 138.873, 73.500 143.663 C 71.300 144.935, 68.375 146.540, 67 147.230 C 65.625 147.921, 64.050 148.848, 63.500 149.290 C 62.950 149.732, 60.250 151.566, 57.500 153.366 C 38.986 165.480, 30.404 173.305, 26.292 181.819 C 21.201 192.362, 28.124 196.371, 50.291 195.718 C 62.606 195.356, 77.542 193.674, 81 192.261 C 81.825 191.923, 85.200 191.117, 88.500 190.468 C 96.882 188.821, 107.192 186.106, 109.127 185.036 C 110.022 184.541, 112.497 183.822, 114.627 183.437 C 116.757 183.052, 118.950 182.470, 119.500 182.143 C 120.842 181.345, 138.543 175.136, 143.250 173.812 C 145.313 173.231, 147 172.361, 147 171.878 C 147 171.395, 147.704 171, 148.564 171 C 149.424 171, 152.588 169.875, 155.594 168.500 C 158.600 167.125, 161.290 166, 161.571 166 C 162.085 166, 172.441 161.360, 179 158.191 C 180.925 157.261, 182.725 156.223, 183 155.885 C 183.275 155.546, 184.569 154.936, 185.876 154.527 C 188.635 153.666, 209.744 141.483, 212.079 139.405 C 212.947 138.632, 213.978 138, 214.369 138 C 214.761 138, 216.413 137.015, 218.040 135.812 L 221 133.624 220.989 128.562 C 220.983 125.778, 220.699 121.814, 220.359 119.753 L 219.739 116.007 215.620 114.980 C 213.354 114.416, 210.810 113.572, 209.967 113.104 C 209.124 112.637, 206.874 111.920, 204.967 111.512 C 203.060 111.103, 201.050 110.433, 200.500 110.022 C 199.950 109.612, 198.243 108.975, 196.707 108.608 C 192.479 107.597, 192.277 105.341, 196.064 101.434 C 197.895 99.545, 199.192 98.072, 198.946 98.160 C 198.701 98.248, 196.925 98.487, 195 98.691 M 163.250 100.119 C 161.463 100.635, 160 101.305, 160 101.608 C 160 102.407, 166.327 100.952, 167.450 99.895 C 168.613 98.799, 167.639 98.851, 163.250 100.119 M 334.500 99.758 C 335.050 100.299, 336.850 101.031, 338.500 101.385 C 341.942 102.122, 340.037 100.693, 336 99.509 C 334.358 99.027, 333.843 99.113, 334.500 99.758 M 345 103.423 C 346.375 104.251, 348.175 104.931, 349 104.934 L 350.500 104.939 349 104.091 C 348.175 103.624, 346.375 102.944, 345 102.579 L 342.500 101.917 345 103.423 M 143.500 106.464 C 141.850 107.219, 141.175 107.858, 142 107.883 C 142.825 107.909, 144.625 107.286, 146 106.500 C 149.183 104.680, 147.450 104.655, 143.500 106.464 M 353 106.423 C 354.375 107.251, 356.175 107.931, 357 107.934 L 358.500 107.939 357 107.091 C 356.175 106.624, 354.375 105.944, 353 105.579 L 350.500 104.917 353 106.423 M 133.250 110.031 C 129.901 111.377, 130.527 112.061, 134 110.850 C 135.650 110.275, 137 109.623, 137 109.402 C 137 108.809, 135.783 109.013, 133.250 110.031 M 124.500 113.535 L 121.500 114.980 124 114.378 C 125.375 114.046, 126.927 113.376, 127.450 112.888 C 128.746 111.677, 128.034 111.833, 124.500 113.535 M 370.441 113.550 C 372.591 115.156, 374.420 115.489, 373.575 114.121 C 373.276 113.637, 372.012 112.984, 370.766 112.670 L 368.500 112.099 370.441 113.550 M 117.105 116.085 C 115.787 116.612, 114.960 117.294, 115.266 117.600 C 115.573 117.906, 117.100 117.464, 118.662 116.618 C 121.803 114.916, 120.846 114.588, 117.105 116.085 M 377 116.423 C 379.786 118.102, 381.977 118.540, 380.450 117.112 C 379.928 116.624, 378.375 115.930, 377 115.571 L 374.500 114.917 377 116.423 M 107 120.577 L 104.500 122.083 107 121.429 C 108.375 121.070, 109.927 120.376, 110.450 119.888 C 111.977 118.460, 109.786 118.898, 107 120.577 M 385.020 119.761 C 385.044 120.606, 395.007 125.327, 395.573 124.761 C 395.777 124.556, 393.482 123.182, 390.472 121.705 C 387.462 120.229, 385.009 119.354, 385.020 119.761 M 100 123.577 L 97.500 125.083 100 124.429 C 101.375 124.070, 102.927 123.376, 103.450 122.888 C 104.977 121.460, 102.786 121.898, 100 123.577 M 93.441 126.468 C 92.374 127.276, 91.950 127.936, 92.500 127.936 C 93.050 127.936, 94.374 127.276, 95.441 126.468 C 96.509 125.661, 96.932 125, 96.382 125 C 95.832 125, 94.509 125.661, 93.441 126.468 M 403.527 129.334 C 405.817 130.882, 409 132.139, 409 131.494 C 409 130.943, 403.380 128, 402.327 128 C 401.902 128, 402.443 128.600, 403.527 129.334 M 247.581 131.250 C 246.945 133.484, 244.036 155.336, 243.555 161.500 C 242.940 169.370, 243.695 166.735, 245.275 155.500 L 246.541 146.500 248.996 146.500 C 251.730 146.500, 252.536 148.244, 253.546 156.342 C 253.878 159.005, 254.353 160.980, 254.602 160.732 C 255.003 160.331, 254.247 153.267, 252.116 137.500 C 251.394 132.156, 250.472 130, 248.910 130 C 248.375 130, 247.777 130.563, 247.581 131.250 M 81.441 132.468 C 80.374 133.276, 79.950 133.936, 80.500 133.936 C 81.050 133.936, 82.374 133.276, 83.441 132.468 C 84.509 131.661, 84.932 131, 84.382 131 C 83.832 131, 82.509 131.661, 81.441 132.468 M 411.441 133.532 C 412.509 134.339, 413.832 135, 414.382 135 C 414.932 135, 414.509 134.339, 413.441 133.532 C 412.374 132.724, 411.050 132.064, 410.500 132.064 C 409.950 132.064, 410.374 132.724, 411.441 133.532 M 73.998 136.624 L 71.500 138.083 74 137.417 C 76.785 136.676, 77.536 136.203, 76.915 135.582 C 76.685 135.352, 75.373 135.821, 73.998 136.624 M 65 141.500 C 61.975 143.400, 59.870 144.965, 60.322 144.977 C 61.457 145.009, 69.871 140.018, 70.559 138.905 C 71.396 137.550, 70.977 137.746, 65 141.500 M 433 145.941 C 433 146.523, 433.468 147, 434.040 147 C 434.613 147, 436.300 147.850, 437.790 148.888 C 439.281 149.926, 442.975 152.415, 446 154.418 C 449.025 156.421, 452.606 158.833, 453.957 159.780 C 455.309 160.726, 456.080 160.954, 455.671 160.287 C 455.262 159.620, 450.556 156.215, 445.214 152.720 C 432.697 144.534, 433 144.702, 433 145.941 M 50.482 150.640 C 45.244 154.113, 43.739 155.630, 47.500 153.646 C 50.649 151.985, 55.870 148.060, 54.982 148.022 C 54.697 148.010, 52.672 149.188, 50.482 150.640 M 42.500 156.141 C 41.950 156.713, 39.700 158.742, 37.500 160.650 L 33.500 164.118 38.750 160.346 C 41.638 158.271, 44 156.219, 44 155.787 C 44 154.789, 43.740 154.850, 42.500 156.141 M 457 161.316 C 457 161.555, 460.712 164.601, 465.250 168.085 C 473.404 174.347, 477.261 177.633, 483.367 183.522 C 487.259 187.276, 490 189.416, 490 188.701 C 490 187.940, 472.501 172.448, 465.392 166.915 C 459.111 162.026, 457 160.618, 457 161.316 M 28.542 168.660 C 26.587 170.673, 25.249 172.582, 25.568 172.902 C 25.888 173.222, 26.592 172.694, 27.131 171.730 C 27.671 170.766, 29.320 168.857, 30.796 167.488 C 32.272 166.120, 33.168 165, 32.788 165 C 32.408 165, 30.497 166.647, 28.542 168.660 M 256.718 181.500 C 257.047 185.350, 257.654 189.625, 258.065 191 C 258.476 192.375, 258.557 190.350, 258.245 186.500 C 257.933 182.650, 257.327 178.375, 256.898 177 C 256.469 175.625, 256.388 177.650, 256.718 181.500 M 240.480 184.346 C 240.097 187.923, 239.985 191.446, 240.232 192.175 C 240.478 192.904, 241.009 190.194, 241.410 186.153 C 241.812 182.113, 241.923 178.590, 241.658 178.325 C 241.393 178.060, 240.863 180.769, 240.480 184.346 M 19.300 187 C 19.300 190.025, 19.487 191.262, 19.716 189.750 C 19.945 188.238, 19.945 185.762, 19.716 184.250 C 19.487 182.738, 19.300 183.975, 19.300 187 M 491.557 191 C 492.025 191.825, 494.400 194.975, 496.836 198 C 502.312 204.803, 502 204.458, 502 203.706 C 502 203.360, 499.912 200.473, 497.360 197.289 C 492.056 190.672, 490.279 188.747, 491.557 191 M 25.500 197.619 C 30.187 202.240, 42.999 213.032, 42.995 212.356 C 42.992 211.885, 41.094 209.925, 38.776 208 C 36.458 206.075, 33.506 203.479, 32.216 202.230 C 30.926 200.982, 28.662 199.212, 27.185 198.297 C 25.708 197.382, 24.950 197.077, 25.500 197.619 M 237.629 206.683 C 236.492 214.292, 235.761 222.489, 236.262 222 C 236.978 221.302, 239.207 203.874, 238.652 203.318 C 238.402 203.069, 237.942 204.583, 237.629 206.683 M 260.742 215 C 261.061 218.575, 261.663 222.625, 262.080 224 C 262.497 225.375, 262.577 223.575, 262.258 220 C 261.939 216.425, 261.337 212.375, 260.920 211 C 260.503 209.625, 260.423 211.425, 260.742 215 M 506.606 213.500 C 507.951 217.730, 508.193 225.008, 507.094 228.161 C 506.205 230.710, 506.215 231.185, 507.138 230.262 C 509.135 228.265, 509.411 218.933, 507.589 214.996 C 506.699 213.073, 506.257 212.400, 506.606 213.500 M 46.427 215.743 C 48.037 217.523, 49.575 218.759, 49.844 218.490 C 50.113 218.220, 50.146 217.887, 49.917 217.750 C 49.688 217.613, 48.150 216.377, 46.500 215.004 L 43.500 212.507 46.427 215.743 M 57 225.500 C 58.866 227.425, 60.617 229, 60.892 229 C 61.167 229, 59.866 227.425, 58 225.500 C 56.134 223.575, 54.383 222, 54.108 222 C 53.833 222, 55.134 223.575, 57 225.500 M 62 229.525 C 62 229.893, 64.351 232.288, 67.225 234.847 C 70.098 237.406, 74.148 241.015, 76.225 242.866 C 78.301 244.718, 80 246.037, 80 245.798 C 80 245.559, 75.950 241.649, 71 237.110 C 66.050 232.570, 62 229.157, 62 229.525 M 233.689 238.026 C 233.325 239.387, 233.074 242.300, 233.131 244.500 L 233.234 248.500 234.136 243.058 C 235.096 237.269, 234.796 233.887, 233.689 238.026 M 489.441 240.555 L 487.500 242.110 489.500 241.190 C 490.600 240.684, 492.175 240.020, 493 239.714 L 494.500 239.158 492.941 239.079 C 492.084 239.036, 490.509 239.700, 489.441 240.555 M 264.671 247 C 265.001 250.025, 265.435 252.688, 265.635 252.917 C 266.410 253.802, 265.812 245.393, 264.965 243.500 C 264.381 242.194, 264.279 243.408, 264.671 247 M 476 248.548 C 472.975 250.457, 469.712 252.292, 468.750 252.626 C 467.788 252.960, 467 253.683, 467 254.232 C 467 254.781, 468.012 254.567, 469.250 253.758 C 470.488 252.948, 473.863 250.833, 476.750 249.057 C 479.637 247.281, 482 245.642, 482 245.414 C 482 244.777, 481.864 244.848, 476 248.548 M 86.946 252.319 C 88.842 254.344, 90.515 256, 90.665 256 C 91.680 256, 89.333 253.095, 86.682 251.069 L 83.500 248.638 86.946 252.319 M 95 259.305 C 95 259.505, 96.350 260.872, 98 262.342 C 99.650 263.813, 101 264.647, 101 264.196 C 101 263.745, 99.650 262.378, 98 261.158 C 96.350 259.938, 95 259.104, 95 259.305 M 450.500 264 C 448.850 265.093, 447.950 265.980, 448.500 265.971 C 449.503 265.955, 454.940 262.058, 454 262.029 C 453.725 262.020, 452.150 262.907, 450.500 264 M 103 266.266 C 103 266.464, 104.379 267.947, 106.064 269.561 C 107.749 271.176, 108.855 271.822, 108.521 270.998 C 107.977 269.654, 103 265.388, 103 266.266 M 229.641 271.210 C 229.303 272.470, 229.076 275.300, 229.136 277.500 L 229.244 281.500 230.108 275.570 C 230.994 269.498, 230.738 267.114, 229.641 271.210 M 268.213 273.500 C 268.192 275.150, 268.526 278.750, 268.954 281.500 C 269.591 285.589, 269.744 285.862, 269.792 283 C 269.825 281.075, 269.491 277.475, 269.051 275 C 268.469 271.728, 268.240 271.319, 268.213 273.500 M 115.946 278.319 C 117.842 280.344, 119.515 282, 119.665 282 C 120.680 282, 118.333 279.095, 115.682 277.069 L 112.500 274.638 115.946 278.319 M 419.500 283 C 417.850 284.093, 416.950 284.980, 417.500 284.971 C 418.503 284.955, 423.940 281.058, 423 281.029 C 422.725 281.020, 421.150 281.907, 419.500 283 M 121 282.736 C 121 283.224, 122.350 284.622, 124 285.842 C 125.650 287.062, 126.975 287.709, 126.945 287.280 C 126.865 286.156, 121 281.673, 121 282.736 M 135.462 295.795 C 138.192 298.658, 140.592 301, 140.796 301 C 141.793 301, 140.045 299.022, 135.500 295.006 L 130.500 290.589 135.462 295.795 M 225.467 304.467 C 225.077 308.110, 224.982 311.316, 225.257 311.591 C 225.532 311.866, 226.077 309.110, 226.467 305.467 C 226.857 301.823, 226.951 298.618, 226.676 298.343 C 226.401 298.068, 225.857 300.823, 225.467 304.467 M 386.861 303.056 L 384.500 305.113 386.694 304.051 C 387.901 303.467, 389.165 302.542, 389.503 301.995 C 390.486 300.404, 389.409 300.837, 386.861 303.056 M 145 304.297 C 145 304.507, 146.575 306.112, 148.500 307.864 C 150.425 309.615, 152 310.700, 152 310.274 C 152 309.848, 150.425 308.243, 148.500 306.707 C 146.575 305.171, 145 304.087, 145 304.297 M 272.199 307 C 272.171 308.925, 272.509 312.525, 272.949 315 L 273.750 319.500 273.801 316 C 273.829 314.075, 273.491 310.475, 273.051 308 L 272.250 303.500 272.199 307 M 379.203 307.429 C 374.302 310.895, 373.962 311.661, 378.500 309.014 C 383.195 306.274, 384.813 304.979, 383.450 305.049 C 382.928 305.076, 381.016 306.147, 379.203 307.429 M 161.436 319.158 C 165.871 323.370, 169.669 326.651, 169.876 326.448 C 170.083 326.246, 168.316 324.375, 165.949 322.290 C 163.582 320.206, 160.901 317.825, 159.991 317 C 153.824 311.410, 154.779 312.836, 161.436 319.158 M 355.750 321.572 C 354.238 322.393, 353 323.275, 353 323.532 C 353 324.498, 354.581 323.893, 357 322 C 359.972 319.675, 359.527 319.523, 355.750 321.572 M 349 326.050 L 346.500 328.055 349.250 326.867 C 350.762 326.214, 352 325.301, 352 324.839 C 352 323.699, 351.861 323.755, 349 326.050 M 172 328.266 C 172 328.464, 173.379 329.947, 175.064 331.561 C 176.749 333.176, 177.855 333.822, 177.521 332.998 C 176.977 331.654, 172 327.388, 172 328.266 M 221.533 336.533 C 221.143 340.177, 221.049 343.382, 221.324 343.657 C 221.599 343.932, 222.143 341.177, 222.533 337.533 C 222.923 333.890, 223.018 330.684, 222.743 330.409 C 222.468 330.134, 221.923 332.890, 221.533 336.533 M 331.760 336.294 C 329.703 337.507, 328.015 338.822, 328.010 339.216 C 327.998 340.066, 334.757 336.202, 335.562 334.899 C 336.324 333.666, 336.038 333.771, 331.760 336.294 M 183.384 339 C 185.771 341.200, 188.012 343, 188.364 343 C 188.716 343, 187.093 341.200, 184.757 339 C 182.422 336.800, 180.181 335, 179.778 335 C 179.375 335, 180.997 336.800, 183.384 339 M 276.183 340 C 276.146 341.925, 276.488 345.300, 276.943 347.500 L 277.770 351.500 277.811 348.500 C 277.833 346.850, 277.491 343.475, 277.051 341 L 276.250 336.500 276.183 340 M 322.861 342.056 C 321.005 343.673, 320.928 343.894, 322.500 343.090 C 325.892 341.355, 327.554 340.031, 326.361 340.015 C 325.734 340.007, 324.159 340.925, 322.861 342.056 M 193 347.500 C 194.866 349.425, 196.617 351, 196.892 351 C 197.167 351, 195.866 349.425, 194 347.500 C 192.134 345.575, 190.383 344, 190.108 344 C 189.833 344, 191.134 345.575, 193 347.500 M 198.102 351.617 C 198.546 352.739, 207 360.493, 207 359.779 C 207 359.530, 204.908 357.365, 202.352 354.969 C 199.796 352.573, 197.883 351.065, 198.102 351.617 M 299.205 356.178 C 296.293 357.864, 294.107 359.440, 294.346 359.680 C 294.802 360.135, 305 354.137, 305 353.414 C 305 352.821, 305.022 352.810, 299.205 356.178 M 212.632 364.892 C 215.045 367.513, 219.022 367.068, 218.970 364.183 L 218.939 362.500 217.920 364.250 C 216.637 366.453, 215.219 366.462, 212.579 364.287 L 210.500 362.574 212.632 364.892 M 279 364.241 C 279 366.381, 282.396 367.394, 284.962 366.020 C 287.912 364.442, 287.468 363.830, 284.390 365.232 L 281.781 366.421 280.390 364.519 L 279 362.618 279 364.241" stroke="none" fill="#ffff00" fill-rule="evenodd"/><path d="M 239 136 C 239 136.550, 238.532 137, 237.961 137 C 237.389 137, 234.582 138.575, 231.724 140.500 C 225.578 144.639, 224.319 144.795, 222.864 141.601 L 221.771 139.202 217.636 141.988 C 209.467 147.490, 204.418 150.562, 199.526 153.011 C 196.790 154.380, 193.945 156.063, 193.204 156.750 C 192.463 157.438, 191.214 158, 190.429 158 C 189.643 158, 189 158.450, 189 159 C 189 159.550, 188.493 160, 187.873 160 C 187.253 160, 183.540 161.537, 179.623 163.416 C 175.705 165.295, 170.250 167.795, 167.500 168.971 C 164.750 170.147, 161.600 171.512, 160.500 172.004 C 153.233 175.254, 142.336 179.525, 135.500 181.802 C 131.100 183.268, 127.275 184.718, 127 185.025 C 126.725 185.331, 121.775 186.854, 116 188.407 C 110.225 189.960, 104.600 191.603, 103.500 192.057 C 101.495 192.885, 99.222 193.427, 82.500 197.063 C 72.698 199.194, 49.310 202.205, 44.501 201.954 C 39.512 201.694, 39.424 201.883, 43.027 205.122 C 44.937 206.840, 48.300 209.882, 50.500 211.882 C 52.700 213.883, 60.800 221.136, 68.500 227.999 C 76.200 234.862, 83.677 241.608, 85.115 242.989 C 86.554 244.370, 90.330 247.750, 93.507 250.500 C 96.684 253.250, 100.969 257.075, 103.029 259 C 105.089 260.925, 110.088 265.425, 114.137 269 C 118.187 272.575, 123.975 277.763, 127 280.529 C 130.025 283.295, 136.550 289.127, 141.500 293.489 C 146.450 297.852, 151.207 302.113, 152.071 302.960 C 152.936 303.807, 156.924 307.425, 160.934 311 C 164.944 314.575, 169.959 319.075, 172.078 321 C 174.197 322.925, 178.466 326.750, 181.564 329.500 C 190.086 337.064, 190.953 337.845, 200.990 347 C 206.116 351.675, 211.093 356.055, 212.051 356.734 L 213.791 357.967 214.434 355.406 C 214.788 353.998, 215.744 346.468, 216.560 338.673 C 217.376 330.878, 218.252 323.825, 218.508 323 C 218.764 322.175, 219.658 314.975, 220.495 307 C 221.332 299.025, 222.434 290.025, 222.944 287 C 223.454 283.975, 224.154 278.125, 224.500 274 C 224.846 269.875, 225.594 263.800, 226.162 260.500 C 226.730 257.200, 227.804 249.325, 228.548 243 C 229.858 231.871, 231.806 215.917, 235.934 182.500 C 237.021 173.700, 238.590 160.670, 239.421 153.545 C 240.251 146.420, 241.207 139.333, 241.545 137.795 C 242.015 135.656, 241.788 135, 240.579 135 C 239.711 135, 239 135.450, 239 136" stroke="none" fill="#0000ff" fill-rule="evenodd"/></svg>