<?xml version="1.0" encoding="utf-8"?>
<svg viewBox="-9.507 -8.889 500 500" xmlns="http://www.w3.org/2000/svg">
  <ellipse style="fill: rgb(216, 216, 216); stroke: rgb(0, 0, 0); opacity: 0.5;" cx="242.345" cy="243.871" rx="216.45" ry="216.038"/>
  <path d="M 243.049 187.896 C 243.273 189.774 243.987 196.19 244.636 202.155 C 245.285 208.119 246.467 218.602 247.262 225.45 C 248.057 232.299 249.227 242.42 249.862 247.943 C 250.497 253.466 251.366 260.334 251.794 263.206 C 252.222 266.078 252.79 271.138 253.055 274.452 C 253.321 277.766 254.027 283.73 254.622 287.707 C 255.218 291.683 255.92 297.828 256.182 301.363 C 256.445 304.897 256.984 309.597 257.382 311.806 C 258.093 315.756 259.049 323.712 261.968 349.963 C 262.779 357.253 263.464 363.308 263.491 363.418 C 263.733 364.425 278.961 356.064 280.591 354.029 C 280.805 353.762 281.851 353.096 282.917 352.549 C 283.982 352.001 285.779 350.923 286.91 350.155 C 288.62 348.992 302.58 340.232 308.108 336.853 C 308.961 336.331 309.833 335.71 310.046 335.473 C 310.259 335.235 314.096 332.777 318.572 330.011 C 327.204 324.677 327.48 324.502 333.595 320.441 C 335.758 319.005 337.942 317.831 338.449 317.831 C 338.956 317.831 339.487 317.531 339.63 317.164 C 339.771 316.797 342.504 314.911 345.701 312.973 C 348.898 311.035 351.689 309.23 351.902 308.962 C 352.115 308.695 352.813 308.213 353.452 307.893 C 354.092 307.573 356.01 306.432 357.715 305.357 C 359.421 304.282 361.6 302.977 362.56 302.454 C 363.519 301.933 364.304 301.203 364.304 300.832 C 364.304 300.461 364.748 300.158 365.29 300.158 C 365.833 300.158 368.046 298.983 370.209 297.547 C 372.371 296.111 374.805 294.499 375.617 293.965 C 376.429 293.432 380.756 290.751 385.232 288.009 C 389.708 285.266 393.545 282.811 393.758 282.553 C 393.971 282.295 394.93 281.632 395.89 281.079 C 396.849 280.527 398.418 279.624 399.378 279.071 C 400.337 278.519 401.296 277.856 401.509 277.597 C 401.722 277.338 404.434 275.6 407.534 273.735 C 410.635 271.869 413.001 270.056 412.793 269.706 C 412.584 269.357 409.297 268.861 405.487 268.606 C 401.677 268.349 396.173 267.561 393.253 266.851 C 383.002 264.362 368.606 260.26 366.242 259.155 C 364.484 258.333 358.865 256.253 355.39 255.139 C 354.111 254.729 352.367 254.047 351.514 253.622 C 350.662 253.197 348.22 252.088 346.089 251.156 C 340.522 248.723 339.553 248.29 335.237 246.309 C 328.887 243.396 319.459 238.53 311.208 233.909 C 306.945 231.522 301.626 228.566 299.388 227.341 C 297.15 226.117 295.319 224.829 295.319 224.479 C 295.319 224.13 294.867 223.844 294.313 223.844 C 293.761 223.844 292.627 223.305 291.794 222.646 C 290.962 221.987 288.013 219.921 285.242 218.053 C 282.471 216.185 280.088 214.375 279.946 214.029 C 279.803 213.684 279.342 213.401 278.92 213.401 C 278.498 213.401 275.783 211.503 272.888 209.184 C 269.991 206.864 266.849 204.424 265.904 203.761 C 264.959 203.099 263.231 201.653 262.064 200.548 C 260.897 199.443 259.095 197.796 258.059 196.887 C 257.023 195.979 253.91 193.178 251.142 190.662 C 248.375 188.147 245.672 186.089 245.135 186.089 C 244.6 186.089 244.161 185.727 244.161 185.285 C 244.161 184.843 243.819 184.482 243.401 184.482 C 242.959 184.482 242.812 185.913 243.049 187.896" stroke="none" fill="#ff0000" fill-rule="evenodd" style=""/>
  <path d="M 233.262 110.377 C 229.895 116.261 225.175 123.847 224.265 124.838 C 223.622 125.538 222.771 125.619 221.465 125.104 C 220.432 124.698 215.525 124.106 210.559 123.788 L 201.53 123.212 L 201.53 124.407 C 201.53 125.842 202.828 130.117 204.319 133.593 C 204.916 134.985 205.417 136.612 205.432 137.208 C 205.446 137.804 206.135 139.738 206.961 141.505 L 208.465 144.718 L 205.962 147.16 L 203.46 149.601 L 193.387 151.428 C 187.847 152.432 182.778 153.548 182.122 153.907 C 181.466 154.267 179.387 154.831 177.501 155.161 C 175.615 155.491 173.536 156.067 172.88 156.441 C 172.224 156.815 169.595 157.687 167.037 158.379 C 157.557 160.945 143.157 166.063 142.75 167.01 C 142.608 167.341 141.987 167.613 141.371 167.613 C 140.403 167.613 134.033 170.102 129.056 172.424 C 128.204 172.823 125.762 173.924 123.631 174.873 C 117.426 177.635 103.513 184.708 103.09 185.316 C 102.877 185.622 101.907 186.13 100.936 186.444 C 99.965 186.758 97.357 188.253 95.141 189.765 C 92.924 191.277 90.696 192.515 90.189 192.515 C 89.682 192.515 89.151 192.786 89.009 193.117 C 88.615 194.036 79.251 200.548 78.324 200.548 C 77.877 200.548 77.511 200.848 77.511 201.215 C 77.511 201.582 75.938 203.054 74.015 204.485 C 72.091 205.917 69.214 208.543 67.62 210.323 C 66.026 212.102 64.111 214.145 63.365 214.863 C 62.62 215.58 62.009 216.482 62.009 216.867 C 62.009 217.251 61.311 218.485 60.459 219.608 C 59.322 221.107 58.912 222.852 58.922 226.161 C 58.936 230.93 59.683 232.158 64.478 235.301 C 65.623 236.052 67.392 237.486 68.411 238.488 C 69.43 239.491 72.637 242.481 75.539 245.131 C 78.441 247.782 81.729 250.855 82.846 251.96 C 83.964 253.064 87.827 256.679 91.432 259.993 C 95.037 263.306 98.545 266.56 99.228 267.222 C 99.911 267.885 103.01 270.777 106.115 273.649 C 109.22 276.521 113.07 280.135 114.67 281.682 C 116.27 283.228 119.402 286.12 121.629 288.108 C 123.856 290.096 126.985 292.988 128.582 294.535 C 130.179 296.081 133.502 299.154 135.967 301.363 C 138.431 303.572 141.561 306.464 142.924 307.789 C 145.015 309.823 153.635 317.937 161.072 324.87 C 162.145 325.87 164.925 328.4 167.25 330.493 C 169.576 332.586 172.767 335.563 174.343 337.11 C 175.919 338.656 179.037 341.548 181.271 343.536 C 183.506 345.524 186.647 348.416 188.25 349.963 C 189.855 351.509 194.085 355.485 197.653 358.799 C 201.219 362.113 205.382 365.997 206.903 367.431 C 212.07 372.301 212.713 371.167 214.335 354.335 C 215.008 347.357 215.697 341.415 215.866 341.131 C 216.035 340.848 216.728 335.123 217.406 328.411 C 218.083 321.698 218.799 315.758 218.998 315.211 C 219.195 314.663 219.904 309.336 220.573 303.371 C 221.824 292.199 223.535 277.462 226.262 254.369 C 227.123 247.079 228.351 236.596 228.991 231.074 C 229.631 225.551 230.345 220.234 230.576 219.258 C 230.808 218.282 231.524 212.317 232.165 206.003 C 234.448 183.56 235.671 178.099 237.672 181.427 C 238.499 182.803 238.496 182.785 244.225 232.279 C 245.095 239.789 246.459 251.538 247.257 258.386 C 248.055 265.234 249.222 275.356 249.85 280.879 C 250.479 286.401 251.349 293.089 251.784 295.74 C 252.22 298.391 252.795 303.451 253.062 306.986 C 253.33 310.52 253.875 315.401 254.275 317.831 C 254.674 320.261 255.513 327.129 256.14 333.093 C 256.767 339.058 257.809 347.914 258.456 352.774 C 259.104 357.634 259.64 362.897 259.648 364.47 C 259.656 366.042 260.162 368.03 260.771 368.888 L 261.879 370.447 L 264.84 368.848 C 266.47 367.969 267.976 367.065 268.19 366.84 C 268.403 366.614 269.275 366.007 270.127 365.489 C 270.98 364.972 276.491 361.538 282.373 357.858 C 288.256 354.178 294.012 350.625 295.163 349.963 C 296.315 349.3 297.431 348.547 297.644 348.288 C 297.857 348.029 300.607 346.222 303.755 344.271 C 306.903 342.321 310.287 340.182 311.276 339.52 C 312.265 338.857 318.572 334.881 325.291 330.683 C 332.011 326.486 338.615 322.329 339.967 321.445 C 341.319 320.562 344.421 318.574 346.86 317.027 C 349.298 315.481 352.215 313.595 353.342 312.836 C 354.468 312.076 356.436 310.908 357.715 310.241 C 360.271 308.907 362.925 307.224 363.529 306.558 C 363.742 306.322 366.532 304.545 369.73 302.608 C 372.927 300.671 375.717 298.869 375.93 298.602 C 376.144 298.335 377.19 297.668 378.256 297.121 C 379.322 296.573 381.118 295.495 382.249 294.727 C 383.959 293.564 397.919 284.804 403.447 281.425 C 404.3 280.903 405.172 280.296 405.385 280.075 C 405.841 279.603 407.354 278.648 413.136 275.183 C 415.481 273.778 417.574 272.406 417.789 272.135 C 418.612 271.091 424.746 268.026 426.011 268.026 C 426.742 268.026 429.072 266.874 431.19 265.465 C 445.085 256.225 434.301 235.011 403.297 210.589 C 392.816 202.335 381.1 194.122 379.803 194.122 C 379.449 194.122 379.044 193.844 378.901 193.504 C 378.561 192.691 367.744 186.089 366.752 186.089 C 366.329 186.089 365.867 185.817 365.725 185.486 C 365.43 184.798 353.951 178.544 344.926 174.154 C 343.434 173.428 342.039 172.611 341.825 172.34 C 341.612 172.068 340.566 171.566 339.5 171.225 C 337.849 170.696 329.613 166.947 324.385 164.344 C 323.533 163.919 321.789 163.243 320.51 162.841 C 319.231 162.438 316.266 161.327 313.921 160.371 C 311.577 159.414 308.263 158.25 306.558 157.783 C 304.852 157.317 303.108 156.667 302.682 156.341 C 302.256 156.015 300.686 155.484 299.194 155.161 C 297.702 154.838 296.132 154.303 295.706 153.972 C 294.763 153.238 285.406 150.936 277.491 149.49 C 266.207 147.428 265.07 146.926 265.115 144.018 C 265.13 143.077 265.815 140.862 266.639 139.095 C 267.463 137.328 268.148 135.47 268.163 134.965 C 268.178 134.462 268.879 132.474 269.723 130.547 C 270.566 128.622 271.264 126.189 271.273 125.142 L 271.29 123.238 L 262.196 123.827 C 257.194 124.151 252.369 124.705 251.473 125.057 C 249.388 125.879 248.885 125.478 245.896 120.619 C 244.538 118.41 243.146 116.241 242.803 115.799 C 242.46 115.358 241.216 113.279 240.037 111.18 C 237.393 106.471 235.618 106.261 233.262 110.377 M 235.66 113.448 C 235.629 114.484 228.87 125.604 226.947 127.783 L 225.588 129.324 L 216.206 128.586 C 211.045 128.181 206.714 127.963 206.58 128.103 C 206.445 128.243 207.199 130.592 208.254 133.324 C 210.162 138.266 212.357 145.045 212.373 146.046 C 212.381 146.53 209.594 149.389 202.111 156.576 C 200.513 158.111 199.204 159.551 199.204 159.775 C 199.204 159.998 201.733 160.989 204.824 161.977 C 207.915 162.965 211.543 164.276 212.886 164.889 C 214.229 165.504 215.675 166.006 216.097 166.006 C 217.136 166.006 217.808 168.012 217.802 171.092 C 217.794 175.254 219.574 186.089 220.267 186.089 C 220.619 186.089 220.908 185.807 220.908 185.461 C 220.908 185.117 221.867 184.4 223.039 183.869 C 224.211 183.339 226.083 182.265 227.198 181.484 C 228.312 180.703 230.847 179.032 232.83 177.77 L 236.435 175.478 L 242.043 178.95 C 245.126 180.861 247.823 182.616 248.037 182.85 C 248.25 183.085 249.496 183.855 250.805 184.563 L 253.186 185.849 L 254.148 177.735 C 255.622 165.31 254.718 166.551 264.769 163.154 C 269.634 161.511 273.615 159.997 273.615 159.792 C 273.615 159.298 266.761 152.375 264.257 150.341 C 260.235 147.074 260.105 144.648 263.531 136.685 C 264.291 134.918 265.163 132.259 265.469 130.775 L 266.024 128.079 L 256.334 128.659 L 246.644 129.238 L 243.467 124.125 C 237.586 114.663 235.701 112.086 235.66 113.448 M 273.615 153.864 C 273.615 154.255 274.439 155.134 275.445 155.817 C 280.524 159.266 281.293 162.338 277.297 163.223 C 275.911 163.53 274.429 164.06 274.003 164.399 C 273.577 164.739 272.019 165.285 270.54 165.614 C 269.062 165.942 267.318 166.518 266.665 166.893 C 266.011 167.269 264.062 167.94 262.334 168.386 L 259.191 169.197 L 257.795 179.8 L 256.399 190.405 L 257.767 191.442 C 258.52 192.011 260.039 193.309 261.144 194.325 C 262.248 195.34 266.116 198.511 269.74 201.371 C 273.363 204.232 276.445 206.844 276.586 207.175 C 276.729 207.506 277.179 207.778 277.589 207.778 C 277.997 207.778 278.753 208.145 279.267 208.593 C 281.584 210.61 287.508 214.896 290.969 217.058 C 293.054 218.361 296.018 220.222 297.558 221.195 C 299.097 222.168 300.88 223.226 301.519 223.546 C 302.159 223.866 302.857 224.364 303.07 224.651 C 303.283 224.94 304.504 225.726 305.783 226.399 C 307.062 227.072 313.863 230.688 320.897 234.433 C 334.894 241.885 347.881 247.943 349.863 247.943 C 350.558 247.943 351.127 248.304 351.127 248.746 C 351.127 249.188 351.738 249.562 352.483 249.577 C 353.229 249.592 355.235 250.302 356.94 251.156 C 358.645 252.01 360.482 252.72 361.02 252.736 C 361.559 252.751 362.605 253.124 363.346 253.565 C 365.084 254.6 376.575 258.386 377.978 258.386 C 378.568 258.386 379.658 258.733 380.398 259.157 C 384.007 261.224 404.952 264.775 413.658 264.796 C 422.218 264.816 427.513 263.664 430.602 261.108 L 432.901 259.207 L 432.884 254.177 L 432.866 249.148 L 430.381 244.73 C 427.641 239.859 425.681 237.408 417.855 229.065 C 412.33 223.176 407.08 218.221 406.365 218.221 C 406.133 218.221 405.556 217.711 405.083 217.088 C 404.61 216.465 400.734 213.394 396.471 210.263 C 392.208 207.133 388.37 204.278 387.942 203.919 C 387.515 203.56 384.551 201.667 381.354 199.713 C 378.158 197.759 375.427 195.882 375.285 195.543 C 375.142 195.203 374.647 194.925 374.183 194.925 C 373.719 194.925 372.789 194.433 372.116 193.832 C 369.775 191.743 339.794 175.68 331.668 172.162 C 329.794 171.351 327.273 170.176 326.067 169.552 C 324.86 168.927 323.465 168.404 322.966 168.389 C 322.468 168.373 320.665 167.663 318.96 166.809 C 317.254 165.955 315.418 165.245 314.879 165.23 C 314.341 165.215 313.294 164.844 312.554 164.405 C 309.564 162.633 291.086 156.645 284.335 155.26 C 281.918 154.764 279.68 154.086 279.362 153.756 C 278.547 152.908 273.615 153.001 273.615 153.864 M 194.166 155.31 C 192.887 155.48 191.143 155.941 190.291 156.333 C 189.438 156.724 187.171 157.264 185.252 157.531 C 183.334 157.799 180.195 158.513 178.276 159.117 C 176.358 159.721 172.172 161.021 168.975 162.006 C 159.701 164.864 156.292 165.993 154.635 166.754 C 152.782 167.604 146.469 169.785 142.427 170.971 C 140.828 171.44 139.521 172.142 139.521 172.53 C 139.521 172.918 138.91 173.248 138.164 173.263 C 137.418 173.278 135.412 173.988 133.707 174.842 C 132.002 175.696 130.352 176.406 130.042 176.422 C 129.732 176.437 126.871 177.714 123.683 179.26 C 120.497 180.807 117.524 182.072 117.078 182.072 C 116.632 182.072 116.267 182.405 116.267 182.812 C 116.267 183.218 115.221 183.789 113.942 184.08 C 112.663 184.371 111.616 184.942 111.616 185.349 C 111.616 185.756 111.178 186.089 110.641 186.089 C 109.669 186.089 104.226 188.919 99.676 191.791 C 98.356 192.623 96.405 193.758 95.339 194.31 C 94.273 194.863 93.052 195.585 92.626 195.915 C 92.2 196.246 88.712 198.689 84.875 201.346 C 75.425 207.889 65.135 217.271 65.116 219.362 C 65.113 219.77 64.552 220.741 63.872 221.52 C 62.236 223.393 62.152 228.124 63.726 229.755 C 66.483 232.612 71.665 233.585 82.388 233.257 C 91.933 232.966 103.51 231.615 106.191 230.48 C 106.83 230.208 109.446 229.561 112.004 229.04 C 118.501 227.717 126.492 225.536 127.992 224.676 C 128.686 224.278 130.604 223.701 132.255 223.392 C 133.906 223.084 135.606 222.559 136.032 222.225 C 136.459 221.892 138.017 221.351 139.495 221.023 C 140.973 220.695 142.717 220.113 143.37 219.731 C 144.806 218.891 150.452 216.813 154.441 215.655 C 156.041 215.191 157.348 214.494 157.348 214.106 C 157.348 213.718 157.958 213.389 158.705 213.374 C 159.451 213.358 161.456 212.648 163.162 211.794 C 164.867 210.94 166.516 210.23 166.826 210.215 C 167.137 210.2 170.102 208.901 173.415 207.328 C 182.173 203.17 184.817 201.815 185.252 201.259 C 185.465 200.987 186.468 200.497 187.481 200.168 C 189.62 199.476 205.982 189.69 207.792 188.02 C 208.465 187.4 209.264 186.892 209.567 186.892 C 209.871 186.892 211.151 186.101 212.412 185.134 L 214.707 183.377 L 214.698 179.31 C 214.693 177.074 214.473 173.89 214.21 172.234 L 213.729 169.225 L 210.537 168.385 C 208.78 167.923 206.645 167.221 205.793 166.825 C 204.94 166.428 201.854 165.299 198.936 164.314 C 196.018 163.329 193.443 162.018 193.214 161.401 C 192.985 160.781 193.956 159.039 195.378 157.518 C 196.798 156.001 197.629 154.813 197.225 154.88 C 196.822 154.946 195.445 155.14 194.166 155.31 M 228.659 185.285 C 228.659 185.727 228.296 186.089 227.853 186.089 C 227.41 186.089 225.234 187.354 223.019 188.9 C 218.255 192.225 217.279 192.35 216.151 189.785 L 215.304 187.857 L 212.099 190.095 C 205.767 194.515 201.854 196.983 198.062 198.95 C 195.941 200.05 193.736 201.402 193.162 201.954 C 192.587 202.506 191.619 202.958 191.011 202.958 C 190.401 202.958 189.903 203.319 189.903 203.761 C 189.903 204.203 189.51 204.565 189.029 204.565 C 188.549 204.565 185.671 205.799 182.635 207.309 C 179.598 208.818 175.37 210.826 173.238 211.771 C 171.106 212.716 168.665 213.812 167.812 214.207 C 162.179 216.818 153.733 220.249 148.434 222.078 C 145.024 223.256 142.059 224.421 141.846 224.667 C 141.633 224.913 137.796 226.136 133.32 227.384 C 128.843 228.632 124.483 229.951 123.631 230.316 C 122.077 230.981 120.315 231.417 107.353 234.337 C 99.756 236.049 81.627 238.468 77.9 238.266 C 74.033 238.058 73.964 238.209 76.757 240.811 C 78.238 242.191 80.844 244.635 82.55 246.242 C 84.255 247.849 90.533 253.675 96.502 259.188 C 102.47 264.702 108.266 270.121 109.38 271.23 C 110.496 272.339 113.422 275.055 115.885 277.264 C 118.347 279.473 121.669 282.545 123.266 284.092 C 124.862 285.638 128.737 289.253 131.876 292.125 C 135.015 294.997 139.501 299.164 141.846 301.386 C 144.191 303.608 149.248 308.293 153.085 311.797 C 156.922 315.302 160.609 318.725 161.279 319.405 C 161.949 320.085 165.04 322.992 168.149 325.864 C 171.257 328.735 175.144 332.35 176.786 333.897 C 178.429 335.443 181.738 338.516 184.139 340.725 C 190.745 346.801 191.417 347.428 199.197 354.783 C 203.17 358.538 207.028 362.056 207.77 362.602 L 209.119 363.592 L 209.617 361.535 C 209.892 360.404 210.633 354.355 211.265 348.093 C 211.898 341.832 212.577 336.166 212.775 335.503 C 212.973 334.841 213.666 329.057 214.315 322.65 C 214.964 316.244 215.818 309.014 216.213 306.584 C 216.609 304.154 217.151 299.455 217.42 296.141 C 217.688 292.828 218.268 287.948 218.708 285.297 C 219.148 282.646 219.981 276.32 220.557 271.239 C 221.573 262.299 223.083 249.483 226.282 222.639 C 227.125 215.57 228.341 205.103 228.985 199.379 C 229.628 193.656 230.369 187.963 230.631 186.727 C 230.996 185.009 230.82 184.482 229.883 184.482 C 229.21 184.482 228.659 184.843 228.659 185.285 M 243.049 187.896 C 243.273 189.774 243.987 196.19 244.636 202.155 C 245.285 208.119 246.467 218.602 247.262 225.45 C 248.057 232.299 249.227 242.42 249.862 247.943 C 250.497 253.466 251.366 260.334 251.794 263.206 C 252.222 266.078 252.79 271.138 253.055 274.452 C 253.321 277.766 254.027 283.73 254.622 287.707 C 255.218 291.683 255.92 297.828 256.182 301.363 C 256.445 304.897 256.984 309.597 257.382 311.806 C 258.093 315.756 259.049 323.712 261.968 349.963 C 262.779 357.253 263.464 363.308 263.491 363.418 C 263.733 364.425 278.961 356.064 280.591 354.029 C 280.805 353.762 281.851 353.096 282.917 352.549 C 283.982 352.001 285.779 350.923 286.91 350.155 C 288.62 348.992 302.58 340.232 308.108 336.853 C 308.961 336.331 309.833 335.71 310.046 335.473 C 310.259 335.235 314.096 332.777 318.572 330.011 C 327.204 324.677 327.48 324.502 333.595 320.441 C 335.758 319.005 337.942 317.831 338.449 317.831 C 338.956 317.831 339.487 317.531 339.63 317.164 C 339.771 316.797 342.504 314.911 345.701 312.973 C 348.898 311.035 351.689 309.23 351.902 308.962 C 352.115 308.695 352.813 308.213 353.452 307.893 C 354.092 307.573 356.01 306.432 357.715 305.357 C 359.421 304.282 361.6 302.977 362.56 302.454 C 363.519 301.933 364.304 301.203 364.304 300.832 C 364.304 300.461 364.748 300.158 365.29 300.158 C 365.833 300.158 368.046 298.983 370.209 297.547 C 372.371 296.111 374.805 294.499 375.617 293.965 C 376.429 293.432 380.756 290.751 385.232 288.009 C 389.708 285.266 393.545 282.811 393.758 282.553 C 393.971 282.295 394.93 281.632 395.89 281.079 C 396.849 280.527 398.418 279.624 399.378 279.071 C 400.337 278.519 401.296 277.856 401.509 277.597 C 401.722 277.338 404.434 275.6 407.534 273.735 C 410.635 271.869 413.001 270.056 412.793 269.706 C 412.584 269.357 409.297 268.861 405.487 268.606 C 401.677 268.349 396.173 267.561 393.253 266.851 C 383.002 264.362 368.606 260.26 366.242 259.155 C 364.484 258.333 358.865 256.253 355.39 255.139 C 354.111 254.729 352.367 254.047 351.514 253.622 C 350.662 253.197 348.22 252.088 346.089 251.156 C 340.522 248.723 339.553 248.29 335.237 246.309 C 328.887 243.396 319.459 238.53 311.208 233.909 C 306.945 231.522 301.626 228.566 299.388 227.341 C 297.15 226.117 295.319 224.829 295.319 224.479 C 295.319 224.13 294.867 223.844 294.313 223.844 C 293.761 223.844 292.627 223.305 291.794 222.646 C 290.962 221.987 288.013 219.921 285.242 218.053 C 282.471 216.185 280.088 214.375 279.946 214.029 C 279.803 213.684 279.342 213.401 278.92 213.401 C 278.498 213.401 275.783 211.503 272.888 209.184 C 269.991 206.864 266.849 204.424 265.904 203.761 C 264.959 203.099 263.231 201.653 262.064 200.548 C 260.897 199.443 259.095 197.796 258.059 196.887 C 257.023 195.979 253.91 193.178 251.142 190.662 C 248.375 188.147 245.672 186.089 245.135 186.089 C 244.6 186.089 244.161 185.727 244.161 185.285 C 244.161 184.843 243.819 184.482 243.401 184.482 C 242.959 184.482 242.812 185.913 243.049 187.896" stroke="none" fill="#000000" fill-rule="evenodd" style=""/>
  <path d="M 235.66 113.448 C 235.629 114.484 228.87 125.604 226.947 127.783 L 225.588 129.324 L 216.206 128.586 C 211.045 128.181 206.714 127.963 206.58 128.103 C 206.445 128.243 207.199 130.592 208.254 133.324 C 210.162 138.266 212.357 145.045 212.373 146.046 C 212.381 146.53 209.594 149.389 202.111 156.576 C 200.513 158.111 199.204 159.551 199.204 159.775 C 199.204 159.998 201.733 160.989 204.824 161.977 C 207.915 162.965 211.543 164.276 212.886 164.889 C 214.229 165.504 215.675 166.006 216.097 166.006 C 217.136 166.006 217.808 168.012 217.802 171.092 C 217.794 175.254 219.574 186.089 220.267 186.089 C 220.619 186.089 220.908 185.807 220.908 185.461 C 220.908 185.117 221.867 184.4 223.039 183.869 C 224.211 183.339 226.083 182.265 227.198 181.484 C 228.312 180.703 230.847 179.032 232.83 177.77 L 236.435 175.478 L 242.043 178.95 C 245.126 180.861 247.823 182.616 248.037 182.85 C 248.25 183.085 249.496 183.855 250.805 184.563 L 253.186 185.849 L 254.148 177.735 C 255.622 165.31 254.718 166.551 264.769 163.154 C 269.634 161.511 273.615 159.997 273.615 159.792 C 273.615 159.298 266.761 152.375 264.257 150.341 C 260.235 147.074 260.105 144.648 263.531 136.685 C 264.291 134.918 265.163 132.259 265.469 130.775 L 266.024 128.079 L 256.334 128.659 L 246.644 129.238 L 243.467 124.125 C 237.586 114.663 235.701 112.086 235.66 113.448" stroke="none" fill="#02ff00" fill-rule="evenodd" style=""/>
  <path d="M 234.3 107.565 C 233.888 108.118 233.306 109.112 233.006 109.775 C 232.707 110.437 233.044 110.166 233.756 109.172 C 234.467 108.178 235.657 107.365 236.401 107.365 C 237.694 107.365 241.836 112.862 241.836 114.578 C 241.836 115.028 242.205 115.398 242.656 115.398 C 243.568 115.398 243.337 114.904 240.116 109.975 C 237.877 106.549 235.725 105.657 234.3 107.565 M 229.692 115.197 C 228.962 116.412 227.994 117.948 227.543 118.611 L 226.721 119.816 L 227.884 118.874 C 229.168 117.833 232.09 112.988 231.434 112.988 C 231.206 112.988 230.422 113.981 229.692 115.197 M 244.505 118.359 C 245.162 119.767 246.086 121.166 246.558 121.468 C 247.598 122.134 246.477 119.846 244.568 117.406 L 243.311 115.799 L 244.505 118.359 M 202.647 122.704 C 202.409 123.104 204.036 123.431 206.264 123.431 C 208.492 123.431 210.169 123.3 209.992 123.14 C 209.191 122.419 203.035 122.053 202.647 122.704 M 224.783 123.029 C 224.252 123.692 222.902 124.257 221.782 124.285 L 219.745 124.336 L 221.583 125.098 C 223.066 125.714 223.703 125.525 224.878 124.122 C 225.678 123.165 226.333 122.256 226.333 122.103 C 226.333 121.503 225.705 121.879 224.783 123.029 M 247.663 123.57 C 248.301 125.306 249.588 125.777 251.525 124.983 L 253.075 124.347 L 251.098 124.29 C 250.011 124.26 248.682 123.783 248.146 123.23 C 247.363 122.425 247.268 122.492 247.663 123.57 M 266.974 123.203 L 271.192 123.508 L 271.562 125.277 L 271.932 127.046 L 271.805 125.037 L 271.678 123.029 L 267.217 122.963 L 262.756 122.897 L 266.974 123.203 M 200.766 124.702 C 200.773 125.55 201.132 126.785 201.565 127.447 C 202.14 128.327 202.212 128.002 201.832 126.242 C 201.194 123.289 200.751 122.648 200.766 124.702 M 212.575 123.984 C 213.321 124.187 214.542 124.187 215.288 123.984 C 216.034 123.783 215.424 123.617 213.932 123.617 C 212.439 123.617 211.829 123.783 212.575 123.984 M 257.929 123.999 C 258.893 124.191 260.288 124.183 261.029 123.983 C 261.77 123.782 260.981 123.624 259.276 123.633 C 257.57 123.642 256.964 123.807 257.929 123.999 M 269.062 131.966 C 268.55 133.129 268.309 134.266 268.527 134.491 C 268.744 134.716 269.289 133.896 269.74 132.669 C 270.803 129.77 270.27 129.218 269.062 131.966 M 203.107 132.709 C 203.123 133.129 203.66 134.376 204.302 135.48 L 205.47 137.489 L 204.963 135.48 C 204.434 133.385 203.057 131.33 203.107 132.709 M 265.886 140.642 C 264.734 143.782 264.962 144.277 266.343 141.635 C 266.999 140.38 267.344 139.156 267.109 138.913 C 266.875 138.669 266.324 139.448 265.886 140.642 M 206.757 143.064 C 207.009 144.432 206.519 145.645 205.135 147.08 C 204.043 148.211 203.418 149.137 203.745 149.137 C 204.072 149.137 205.241 148.143 206.342 146.927 C 207.915 145.191 208.2 144.332 207.675 142.911 C 206.792 140.526 206.304 140.607 206.757 143.064 M 271.29 148.191 C 271.929 148.591 274.197 149.128 276.328 149.385 C 280.984 149.943 278.717 148.787 273.615 148 C 271.412 147.66 270.555 147.731 271.29 148.191 M 284.079 150.635 C 284.932 151.022 286.85 151.567 288.343 151.848 C 290.205 152.198 290.569 152.137 289.505 151.655 C 288.653 151.268 286.734 150.722 285.242 150.442 C 283.379 150.092 283.015 150.153 284.079 150.635 M 189.128 151.546 L 187.19 152.19 L 189.128 152.175 C 190.194 152.167 192.112 151.884 193.391 151.546 L 195.716 150.934 L 193.391 150.918 C 192.112 150.91 190.194 151.193 189.128 151.546 M 179.439 153.956 L 177.889 154.646 L 179.587 154.703 C 180.521 154.734 181.501 154.398 181.764 153.956 C 182.331 153.006 181.572 153.006 179.439 153.956 M 273.615 153.776 C 273.615 154.216 274.439 155.134 275.445 155.817 C 280.524 159.266 281.293 162.338 277.297 163.223 C 275.911 163.53 274.429 164.06 274.003 164.399 C 273.577 164.739 272.019 165.285 270.54 165.614 C 269.062 165.942 267.318 166.518 266.665 166.893 C 266.011 167.269 264.062 167.94 262.334 168.386 L 259.191 169.197 L 257.795 179.8 L 256.399 190.405 L 257.767 191.442 C 258.52 192.011 260.039 193.307 261.144 194.321 C 262.248 195.335 264.546 197.24 266.252 198.557 C 267.957 199.872 269.749 201.335 270.234 201.806 C 273.209 204.695 292.899 218.661 297.256 220.972 C 299.971 222.412 302.519 224.05 303.07 224.71 C 303.283 224.965 304.504 225.728 305.783 226.406 C 307.062 227.084 313.863 230.686 320.897 234.414 C 334.47 241.605 345.483 246.777 348.995 247.611 C 350.167 247.889 351.127 248.439 351.127 248.833 C 351.127 249.227 351.738 249.562 352.483 249.577 C 353.229 249.592 355.235 250.302 356.94 251.156 C 358.645 252.01 360.482 252.72 361.02 252.736 C 361.559 252.751 362.605 253.124 363.346 253.565 C 365.084 254.6 376.575 258.386 377.978 258.386 C 378.568 258.386 379.658 258.733 380.398 259.157 C 384.007 261.224 404.952 264.775 413.658 264.796 C 422.218 264.816 427.513 263.664 430.602 261.108 L 432.901 259.207 L 432.884 254.177 L 432.866 249.148 L 430.381 244.73 C 427.641 239.859 425.681 237.408 417.855 229.065 C 412.33 223.176 407.08 218.221 406.365 218.221 C 406.133 218.221 405.556 217.707 405.083 217.081 C 404.61 216.454 400.734 213.395 396.471 210.284 C 392.208 207.174 388.37 204.321 387.942 203.947 C 387.515 203.572 384.551 201.667 381.354 199.713 C 378.158 197.759 375.427 195.882 375.285 195.543 C 375.142 195.203 374.647 194.925 374.183 194.925 C 373.719 194.925 372.789 194.433 372.116 193.832 C 370.385 192.287 363.62 188.507 348.333 180.544 C 335.463 173.839 332.891 172.6 325.548 169.571 C 323.63 168.779 320.597 167.473 318.808 166.667 C 317.02 165.861 315.184 165.203 314.728 165.203 C 314.273 165.203 313.294 164.844 312.554 164.405 C 309.682 162.704 291.891 156.907 283.692 155.001 C 275.851 153.177 273.615 152.906 273.615 153.776 M 194.554 155.315 C 193.062 155.478 191.143 155.934 190.291 156.329 C 189.438 156.722 187.171 157.264 185.252 157.531 C 183.334 157.799 180.195 158.513 178.276 159.117 C 176.358 159.721 172.172 161.021 168.975 162.006 C 159.701 164.864 156.292 165.993 154.635 166.754 C 152.782 167.604 146.469 169.785 142.427 170.971 C 140.829 171.44 139.521 172.142 139.521 172.53 C 139.521 172.918 138.91 173.248 138.164 173.263 C 137.418 173.278 135.412 173.988 133.707 174.842 C 132.002 175.696 130.359 176.406 130.055 176.422 C 129.752 176.437 126.931 177.714 123.788 179.26 C 120.644 180.807 117.666 182.072 117.169 182.072 C 116.673 182.072 116.267 182.405 116.267 182.812 C 116.267 183.218 115.221 183.789 113.942 184.08 C 112.663 184.371 111.616 184.942 111.616 185.349 C 111.616 185.756 111.175 186.089 110.636 186.089 C 109.686 186.089 106.802 187.593 100.377 191.441 C 98.672 192.463 96.405 193.752 95.339 194.306 C 94.273 194.861 93.052 195.606 92.626 195.961 C 92.2 196.316 90.107 197.789 87.975 199.235 C 73.625 208.967 66.973 215.253 63.786 222.092 C 59.839 230.561 65.206 233.782 82.388 233.257 C 91.933 232.966 103.51 231.615 106.191 230.48 C 106.83 230.208 109.446 229.561 112.004 229.04 C 118.501 227.717 126.492 225.536 127.992 224.676 C 128.686 224.278 130.604 223.701 132.255 223.392 C 133.906 223.082 135.606 222.615 136.032 222.352 C 137.073 221.711 150.793 216.723 154.441 215.66 C 156.041 215.193 157.348 214.494 157.348 214.106 C 157.348 213.718 157.894 213.401 158.56 213.401 C 159.227 213.401 161.679 212.497 164.009 211.393 C 166.339 210.288 168.425 209.384 168.642 209.384 C 169.041 209.384 177.068 205.657 182.152 203.111 C 183.644 202.364 185.039 201.53 185.252 201.259 C 185.465 200.987 186.468 200.497 187.481 200.168 C 189.62 199.476 205.982 189.69 207.792 188.02 C 208.465 187.4 209.264 186.892 209.567 186.892 C 209.871 186.892 211.151 186.101 212.412 185.134 L 214.707 183.377 L 214.698 179.31 C 214.693 177.074 214.473 173.89 214.21 172.234 L 213.729 169.225 L 210.537 168.4 C 208.78 167.947 206.808 167.269 206.155 166.893 C 205.501 166.518 203.757 165.942 202.279 165.614 C 200.801 165.285 199.243 164.747 198.817 164.417 C 198.39 164.088 197.067 163.576 195.877 163.281 C 192.6 162.469 192.443 160.657 195.378 157.518 C 196.798 156.001 197.803 154.817 197.612 154.888 C 197.422 154.959 196.046 155.151 194.554 155.315 M 169.944 156.462 C 168.559 156.876 167.425 157.415 167.425 157.658 C 167.425 158.3 172.329 157.131 173.199 156.282 C 174.101 155.401 173.346 155.443 169.944 156.462 M 302.682 156.172 C 303.108 156.606 304.504 157.194 305.783 157.479 C 308.451 158.071 306.974 156.923 303.845 155.972 C 302.572 155.585 302.173 155.654 302.682 156.172 M 310.821 159.116 C 311.887 159.781 313.282 160.327 313.921 160.33 L 315.084 160.334 L 313.921 159.653 C 313.282 159.277 311.887 158.731 310.821 158.438 L 308.883 157.906 L 310.821 159.116 M 154.635 161.559 C 153.356 162.165 152.833 162.679 153.473 162.699 C 154.112 162.72 155.507 162.219 156.573 161.588 C 159.04 160.126 157.697 160.106 154.635 161.559 M 317.022 161.526 C 318.088 162.191 319.483 162.737 320.122 162.74 L 321.285 162.744 L 320.122 162.062 C 319.483 161.687 318.088 161.141 317.022 160.848 L 315.084 160.316 L 317.022 161.526 M 146.69 164.424 C 144.094 165.505 144.58 166.055 147.272 165.082 C 148.551 164.62 149.597 164.096 149.597 163.919 C 149.597 163.443 148.654 163.606 146.69 164.424 M 139.908 167.239 L 137.583 168.4 L 139.521 167.916 C 140.586 167.649 141.789 167.111 142.195 166.719 C 143.199 165.746 142.647 165.872 139.908 167.239 M 330.541 167.251 C 332.207 168.541 333.625 168.809 332.97 167.71 C 332.738 167.321 331.758 166.796 330.792 166.544 L 329.036 166.085 L 330.541 167.251 M 134.176 169.287 C 133.154 169.711 132.513 170.259 132.751 170.504 C 132.989 170.75 134.172 170.395 135.383 169.716 C 137.818 168.348 137.076 168.085 134.176 169.287 M 335.625 169.559 C 337.784 170.908 339.482 171.26 338.299 170.112 C 337.894 169.72 336.69 169.163 335.625 168.875 L 333.687 168.349 L 335.625 169.559 M 126.344 172.896 L 124.406 174.106 L 126.344 173.58 C 127.409 173.292 128.612 172.734 129.018 172.342 C 130.201 171.195 128.503 171.547 126.344 172.896 M 341.841 172.24 C 341.86 172.919 349.582 176.712 350.021 176.257 C 350.179 176.092 348.4 174.988 346.067 173.802 C 343.734 172.616 341.832 171.913 341.841 172.24 M 120.918 175.306 L 118.98 176.516 L 120.918 175.99 C 121.984 175.702 123.187 175.144 123.592 174.752 C 124.775 173.605 123.077 173.957 120.918 175.306 M 115.834 177.628 C 115.007 178.277 114.678 178.807 115.104 178.807 C 115.531 178.807 116.557 178.277 117.384 177.628 C 118.212 176.98 118.54 176.449 118.113 176.449 C 117.687 176.449 116.662 176.98 115.834 177.628 M 356.186 179.93 C 357.961 181.174 360.428 182.184 360.428 181.666 C 360.428 181.223 356.072 178.859 355.256 178.859 C 354.926 178.859 355.346 179.341 356.186 179.93 M 235.31 181.47 C 234.817 183.264 232.562 200.818 232.189 205.77 C 231.713 212.092 232.298 209.975 233.523 200.95 L 234.504 193.72 L 236.407 193.72 C 238.526 193.72 239.151 195.121 239.934 201.626 C 240.191 203.765 240.559 205.352 240.752 205.153 C 241.063 204.83 240.477 199.156 238.825 186.49 C 238.265 182.197 237.551 180.465 236.34 180.465 C 235.925 180.465 235.462 180.918 235.31 181.47 M 106.532 182.448 C 105.705 183.097 105.377 183.627 105.803 183.627 C 106.229 183.627 107.256 183.097 108.083 182.448 C 108.91 181.8 109.238 181.269 108.812 181.269 C 108.386 181.269 107.36 181.8 106.532 182.448 M 362.32 183.303 C 363.148 183.951 364.174 184.482 364.6 184.482 C 365.026 184.482 364.698 183.951 363.87 183.303 C 363.043 182.654 362.017 182.123 361.591 182.123 C 361.165 182.123 361.493 182.654 362.32 183.303 M 100.763 185.786 L 98.827 186.959 L 100.765 186.424 C 102.923 185.828 103.506 185.448 103.024 184.949 C 102.846 184.765 101.829 185.141 100.763 185.786 M 93.789 189.703 C 91.444 191.23 89.812 192.487 90.163 192.497 C 91.043 192.522 97.564 188.513 98.098 187.619 C 98.746 186.53 98.422 186.688 93.789 189.703 M 379.031 193.271 C 379.031 193.738 379.394 194.122 379.837 194.122 C 380.281 194.122 381.589 194.804 382.744 195.638 C 383.899 196.472 386.763 198.471 389.107 200.081 C 391.452 201.69 394.228 203.627 395.275 204.388 C 396.323 205.148 396.921 205.331 396.604 204.795 C 396.287 204.259 392.639 201.524 388.498 198.716 C 378.796 192.141 379.031 192.276 379.031 193.271 M 82.536 197.046 C 78.476 199.835 77.309 201.054 80.224 199.46 C 82.665 198.126 86.712 194.973 86.024 194.943 C 85.803 194.933 84.233 195.879 82.536 197.046 M 76.349 201.465 C 75.922 201.924 74.178 203.554 72.473 205.087 L 69.373 207.873 L 73.442 204.842 C 75.681 203.176 77.511 201.527 77.511 201.18 C 77.511 200.379 77.31 200.428 76.349 201.465 M 397.634 205.622 C 397.634 205.814 400.511 208.261 404.028 211.059 C 410.349 216.09 413.338 218.729 418.071 223.46 C 421.088 226.475 423.212 228.195 423.212 227.62 C 423.212 227.009 409.649 214.564 404.138 210.119 C 399.27 206.192 397.634 205.061 397.634 205.622 M 65.53 211.521 C 64.014 213.138 62.977 214.672 63.224 214.929 C 63.472 215.186 64.018 214.762 64.436 213.987 C 64.854 213.213 66.133 211.679 67.277 210.58 C 68.421 209.481 69.115 208.581 68.821 208.581 C 68.526 208.581 67.045 209.904 65.53 211.521 M 242.392 221.836 C 242.647 224.928 243.118 228.362 243.436 229.467 C 243.755 230.572 243.818 228.945 243.576 225.852 C 243.334 222.759 242.864 219.325 242.532 218.221 C 242.199 217.116 242.136 218.743 242.392 221.836 M 229.806 224.122 C 229.509 226.995 229.422 229.825 229.614 230.411 C 229.804 230.996 230.216 228.82 230.527 225.573 C 230.838 222.328 230.924 219.498 230.719 219.285 C 230.514 219.072 230.103 221.248 229.806 224.122 M 58.366 226.254 C 58.366 228.684 58.511 229.677 58.688 228.463 C 58.866 227.248 58.866 225.259 58.688 224.045 C 58.511 222.83 58.366 223.824 58.366 226.254 M 424.419 229.467 C 424.782 230.13 426.623 232.66 428.511 235.09 C 432.756 240.555 432.514 240.278 432.514 239.674 C 432.514 239.396 430.895 237.077 428.917 234.519 C 424.806 229.204 423.429 227.657 424.419 229.467 M 63.172 234.784 C 66.805 238.496 76.735 247.165 76.732 246.622 C 76.73 246.244 75.259 244.67 73.462 243.123 C 71.665 241.577 69.377 239.491 68.377 238.488 C 67.377 237.486 65.623 236.064 64.478 235.329 C 63.333 234.594 62.745 234.349 63.172 234.784 M 227.596 242.065 C 226.715 248.178 226.148 254.762 226.536 254.369 C 227.091 253.809 228.819 239.809 228.389 239.362 C 228.195 239.162 227.839 240.378 227.596 242.065 M 245.511 248.746 C 245.758 251.618 246.225 254.872 246.548 255.976 C 246.872 257.081 246.934 255.635 246.686 252.763 C 246.439 249.891 245.972 246.638 245.649 245.533 C 245.326 244.429 245.264 245.875 245.511 248.746 M 436.084 247.541 C 437.127 250.939 437.314 256.786 436.462 259.319 C 435.773 261.366 435.781 261.748 436.496 261.006 C 438.044 259.402 438.258 251.906 436.846 248.743 C 436.156 247.198 435.814 246.658 436.084 247.541 M 79.393 249.343 C 80.64 250.773 81.833 251.766 82.041 251.55 C 82.25 251.333 82.275 251.065 82.098 250.955 C 81.92 250.845 80.728 249.852 79.449 248.75 L 77.124 246.744 L 79.393 249.343 M 87.588 257.181 C 89.034 258.727 90.391 259.993 90.605 259.993 C 90.818 259.993 89.809 258.727 88.363 257.181 C 86.917 255.635 85.559 254.369 85.346 254.369 C 85.133 254.369 86.141 255.635 87.588 257.181 M 91.463 260.414 C 91.463 260.71 93.286 262.634 95.513 264.69 C 97.74 266.745 100.879 269.644 102.489 271.131 C 104.099 272.619 105.415 273.678 105.415 273.486 C 105.415 273.295 102.276 270.154 98.439 266.507 C 94.603 262.86 91.463 260.119 91.463 260.414 M 224.542 267.243 C 224.26 268.337 224.065 270.677 224.11 272.444 L 224.189 275.657 L 224.889 271.285 C 225.633 266.635 225.4 263.918 224.542 267.243 M 422.779 269.275 L 421.275 270.524 L 422.825 269.785 C 423.678 269.378 424.898 268.845 425.538 268.599 L 426.7 268.153 L 425.492 268.089 C 424.828 268.055 423.607 268.588 422.779 269.275 M 248.557 274.452 C 248.812 276.882 249.149 279.021 249.304 279.205 C 249.905 279.916 249.441 273.161 248.785 271.641 C 248.332 270.591 248.253 271.567 248.557 274.452 M 412.361 275.696 C 410.016 277.229 407.487 278.703 406.741 278.971 C 405.996 279.24 405.385 279.821 405.385 280.262 C 405.385 280.703 406.169 280.531 407.129 279.881 C 408.088 279.23 410.704 277.531 412.942 276.104 C 415.18 274.678 417.012 273.361 417.012 273.178 C 417.012 272.666 416.906 272.723 412.361 275.696 M 110.799 278.725 C 112.269 280.352 113.566 281.682 113.682 281.682 C 114.469 281.682 112.65 279.348 110.595 277.721 L 108.128 275.768 L 110.799 278.725 M 117.042 284.337 C 117.042 284.497 118.089 285.596 119.368 286.776 C 120.646 287.958 121.693 288.628 121.693 288.266 C 121.693 287.903 120.646 286.805 119.368 285.825 C 118.089 284.845 117.042 284.175 117.042 284.337 M 392.595 288.108 C 391.317 288.986 390.619 289.699 391.045 289.692 C 391.823 289.679 396.037 286.548 395.308 286.525 C 395.095 286.518 393.874 287.23 392.595 288.108 M 123.243 289.929 C 123.243 290.088 124.312 291.279 125.618 292.575 C 126.924 293.873 127.781 294.392 127.523 293.73 C 127.101 292.65 123.243 289.223 123.243 289.929 M 221.404 293.9 C 221.142 294.912 220.966 297.186 221.013 298.953 L 221.097 302.166 L 221.766 297.402 C 222.453 292.525 222.255 290.61 221.404 293.9 M 251.302 295.74 C 251.286 297.065 251.545 299.957 251.876 302.166 C 252.37 305.451 252.489 305.67 252.526 303.371 C 252.552 301.825 252.293 298.933 251.952 296.945 C 251.501 294.316 251.323 293.988 251.302 295.74 M 133.278 299.611 C 134.747 301.237 136.044 302.568 136.16 302.568 C 136.947 302.568 135.128 300.234 133.073 298.607 L 130.607 296.654 L 133.278 299.611 M 368.567 303.371 C 367.288 304.249 366.59 304.962 367.017 304.954 C 367.794 304.942 372.008 301.811 371.28 301.788 C 371.067 301.781 369.846 302.493 368.567 303.371 M 137.195 303.159 C 137.195 303.551 138.242 304.674 139.521 305.654 C 140.799 306.634 141.826 307.154 141.803 306.809 C 141.741 305.906 137.195 302.305 137.195 303.159 M 148.405 313.649 C 150.521 315.949 152.381 317.831 152.539 317.831 C 153.312 317.831 151.957 316.242 148.434 313.016 L 144.559 309.467 L 148.405 313.649 M 218.169 320.616 C 217.867 323.542 217.793 326.117 218.006 326.338 C 218.219 326.559 218.642 324.345 218.944 321.419 C 219.246 318.492 219.319 315.917 219.106 315.696 C 218.893 315.475 218.471 317.688 218.169 320.616 M 343.268 319.482 L 341.438 321.135 L 343.138 320.281 C 344.074 319.812 345.054 319.069 345.316 318.63 C 346.078 317.352 345.243 317.7 343.268 319.482 M 155.798 320.479 C 155.798 320.648 157.019 321.937 158.511 323.344 C 160.003 324.751 161.224 325.623 161.224 325.28 C 161.224 324.938 160.003 323.649 158.511 322.415 C 157.019 321.181 155.798 320.31 155.798 320.479 M 254.392 322.65 C 254.37 324.197 254.632 327.089 254.973 329.077 L 255.594 332.692 L 255.633 329.88 C 255.655 328.334 255.393 325.442 255.052 323.454 L 254.431 319.839 L 254.392 322.65 M 337.332 322.995 C 333.533 325.779 333.27 326.395 336.787 324.268 C 340.426 322.067 341.68 321.027 340.624 321.083 C 340.219 321.105 338.737 321.965 337.332 322.995 M 168.538 332.417 C 171.975 335.8 174.919 338.436 175.08 338.273 C 175.24 338.111 173.87 336.608 172.036 334.933 C 170.201 333.259 168.123 331.346 167.418 330.683 C 162.638 326.193 163.378 327.338 168.538 332.417 M 319.153 334.356 C 317.981 335.016 317.022 335.724 317.022 335.931 C 317.022 336.707 318.247 336.221 320.122 334.7 C 322.426 332.832 322.081 332.71 319.153 334.356 M 313.921 337.953 L 311.984 339.564 L 314.115 338.61 C 315.287 338.085 316.247 337.352 316.247 336.981 C 316.247 336.065 316.139 336.11 313.921 337.953 M 176.726 339.733 C 176.726 339.892 177.795 341.084 179.101 342.38 C 180.407 343.678 181.264 344.197 181.005 343.535 C 180.584 342.455 176.726 339.028 176.726 339.733 M 215.12 346.374 C 214.817 349.302 214.745 351.876 214.958 352.097 C 215.171 352.318 215.593 350.105 215.895 347.178 C 216.197 344.251 216.271 341.676 216.058 341.455 C 215.844 341.234 215.422 343.448 215.12 346.374 M 300.558 346.182 C 298.964 347.157 297.656 348.213 297.652 348.53 C 297.642 349.212 302.881 346.108 303.505 345.062 C 304.096 344.071 303.874 344.156 300.558 346.182 M 185.55 348.356 C 187.4 350.123 189.137 351.569 189.41 351.569 C 189.683 351.569 188.425 350.123 186.614 348.356 C 184.804 346.589 183.067 345.143 182.755 345.143 C 182.442 345.143 183.7 346.589 185.55 348.356 M 257.48 349.159 C 257.451 350.706 257.716 353.417 258.069 355.184 L 258.71 358.397 L 258.742 355.988 C 258.759 354.662 258.494 351.951 258.153 349.963 L 257.532 346.348 L 257.48 349.159 M 293.661 350.811 C 292.222 352.11 292.162 352.287 293.381 351.642 C 296.01 350.248 297.298 349.184 296.373 349.171 C 295.887 349.165 294.667 349.902 293.661 350.811 M 193.003 355.184 C 194.45 356.731 195.807 357.996 196.02 357.996 C 196.233 357.996 195.225 356.731 193.779 355.184 C 192.332 353.638 190.975 352.373 190.762 352.373 C 190.549 352.373 191.557 353.638 193.003 355.184 M 196.958 358.491 C 197.302 359.393 203.855 365.622 203.855 365.048 C 203.855 364.848 202.233 363.109 200.252 361.184 C 198.271 359.259 196.788 358.048 196.958 358.491 M 275.324 362.155 C 273.067 363.51 271.373 364.776 271.558 364.968 C 271.912 365.334 279.816 360.516 279.816 359.935 C 279.816 359.459 279.833 359.45 275.324 362.155 M 208.22 369.155 C 210.091 371.261 213.173 370.903 213.133 368.586 L 213.109 367.234 L 212.319 368.64 C 211.325 370.409 210.226 370.416 208.179 368.669 L 206.568 367.293 L 208.22 369.155 M 259.663 368.632 C 259.663 370.351 262.296 371.165 264.285 370.061 C 266.571 368.794 266.227 368.302 263.841 369.428 L 261.819 370.384 L 260.741 368.856 L 259.663 367.329 L 259.663 368.632" stroke="none" fill="#ffff00" fill-rule="evenodd" style=""/>
  <path d="M 228.659 185.285 C 228.659 185.727 228.296 186.089 227.853 186.089 C 227.41 186.089 225.234 187.354 223.019 188.9 C 218.255 192.225 217.279 192.35 216.151 189.785 L 215.304 187.857 L 212.099 190.095 C 205.767 194.515 201.854 196.983 198.062 198.95 C 195.941 200.05 193.736 201.402 193.162 201.954 C 192.587 202.506 191.619 202.958 191.011 202.958 C 190.401 202.958 189.903 203.319 189.903 203.761 C 189.903 204.203 189.51 204.565 189.029 204.565 C 188.549 204.565 185.671 205.799 182.635 207.309 C 179.598 208.818 175.37 210.826 173.238 211.771 C 171.106 212.716 168.665 213.812 167.812 214.207 C 162.179 216.818 153.733 220.249 148.434 222.078 C 145.024 223.256 142.059 224.421 141.846 224.667 C 141.633 224.913 137.796 226.136 133.32 227.384 C 128.843 228.632 124.483 229.951 123.631 230.316 C 122.077 230.981 120.315 231.417 107.353 234.337 C 99.756 236.049 81.627 238.468 77.9 238.266 C 74.033 238.058 73.964 238.209 76.757 240.811 C 78.238 242.191 80.844 244.635 82.55 246.242 C 84.255 247.849 90.533 253.675 96.502 259.188 C 102.47 264.702 108.266 270.121 109.38 271.23 C 110.496 272.339 113.422 275.055 115.885 277.264 C 118.347 279.473 121.669 282.545 123.266 284.092 C 124.862 285.638 128.737 289.253 131.876 292.125 C 135.015 294.997 139.501 299.164 141.846 301.386 C 144.191 303.608 149.248 308.293 153.085 311.797 C 156.922 315.302 160.609 318.725 161.279 319.405 C 161.949 320.085 165.04 322.992 168.149 325.864 C 171.257 328.735 175.144 332.35 176.786 333.897 C 178.429 335.443 181.738 338.516 184.139 340.725 C 190.745 346.801 191.417 347.428 199.197 354.783 C 203.17 358.538 207.028 362.056 207.77 362.602 L 209.119 363.592 L 209.617 361.535 C 209.892 360.404 210.633 354.355 211.265 348.093 C 211.898 341.832 212.577 336.166 212.775 335.503 C 212.973 334.841 213.666 329.057 214.315 322.65 C 214.964 316.244 215.818 309.014 216.213 306.584 C 216.609 304.154 217.151 299.455 217.42 296.141 C 217.688 292.828 218.268 287.948 218.708 285.297 C 219.148 282.646 219.981 276.32 220.557 271.239 C 221.573 262.299 223.083 249.483 226.282 222.639 C 227.125 215.57 228.341 205.103 228.985 199.379 C 229.628 193.656 230.369 187.963 230.631 186.727 C 230.996 185.009 230.82 184.482 229.883 184.482 C 229.21 184.482 228.659 184.843 228.659 185.285" stroke="none" fill="#0000ff" fill-rule="evenodd" style=""/>
</svg>